<?xml version="1.0" standalone="no"?>
<!DOCTYPE svg PUBLIC "-//W3C//DTD SVG 1.1//EN" "http://www.w3.org/Graphics/SVG/1.1/DTD/svg11.dtd" >
<svg xmlns="http://www.w3.org/2000/svg">
<metadata></metadata>
<defs>
<font id="dearjoeitalic" horiz-adv-x="438" >
<font-face units-per-em="2048" ascent="1638" descent="-410" />
<missing-glyph horiz-adv-x="509" />
<glyph horiz-adv-x="2048" />
<glyph horiz-adv-x="2048" />
<glyph unicode="&#xd;" horiz-adv-x="509" />
<glyph unicode=" "  horiz-adv-x="509" />
<glyph unicode="&#x09;" horiz-adv-x="509" />
<glyph unicode="&#xa0;" horiz-adv-x="509" />
<glyph unicode="!" horiz-adv-x="393" d="M49 6q6 20 27 57q47 -7 63 -38q-16 -10 -10 -31q-18 2 -27 -17q-35 10 -53 29zM170 358q25 39 35 86q14 78 84 246q63 156 76 248l10 -6l4 10q2 -2 43 -4q25 -2 31 -29q-4 -6 -36 -64.5t-32 -62.5t8 -12q-12 -6 -41 -78q-25 -53 -49 -106q-31 -68 -31 -109 q-18 -8 -32 -84q-23 -35 -23 -47h-41z" />
<glyph unicode="&#x22;" horiz-adv-x="546" d="M123 645q0 2 35 53q20 29 18 62q14 2 25 6q-20 12 -22.5 30.5t-8.5 26.5q20 35 84 97q6 0 18.5 -3.5t16.5 -3.5q14 0 41 -43q-23 -14 -19 -63q-12 -27 -26 -51q-25 -41 -31 -41q-20 0 -12 -29h-4q-16 0 -41 -27.5t-37 -27.5q-6 0 -13.5 5t-11.5 5q-14 0 -12 4zM307 645 q0 2 35 53q20 29 18 62q14 2 25 6q-20 12 -22.5 30.5t-8.5 26.5q20 35 84 97q6 0 18.5 -3.5t16.5 -3.5q14 0 41 -43q-23 -14 -18 -63q-12 -27 -27 -51q-25 -41 -31 -41q-20 0 -12 -29h-4q-16 0 -41 -27.5t-37 -27.5q-6 0 -13 5t-12 5q-14 0 -12 4z" />
<glyph unicode="#" horiz-adv-x="649" d="M18 197q6 37 84 49q8 -2 17 -4q6 0 6 4l-2 6q0 -4 4 -10l4 10q0 -4 12 -6q8 0 26.5 5t31.5 5q8 25 20 72l-10 8q-4 0 -38 -14.5t-40 -14.5q-8 0 -27.5 19.5t-19.5 27.5t11.5 24.5t21.5 16.5q4 0 14 -2t14 -2q18 0 54.5 11.5t40.5 21.5v22q0 10 14 17q-6 6 -6 16 q29 41 43 41q43 -23 43 -41v-18q-2 -12 -2 -19q-10 -2 -10 -12h4q10 0 24 -4l10 10q6 -4 15 -6q16 0 28.5 31t12.5 51q0 4 -8 -2q0 -18 12 59q18 14 45 31q33 -12 47 -33v-45q-37 -23 -31 -59q-6 -4 -20 -10v-19q10 6 63 6q4 0 12.5 3t12.5 3q6 0 7 -5t7 -5t20.5 2t22.5 2 q20 0 29 -2q-14 -10 -10 -16q-14 0 -54.5 -15.5t-56.5 -15.5q-4 0 -5 -3t-5 -3q-6 0 -6 4q4 6 2 6l-10 -8q2 -4 -48 -4q4 0 5 -10q0 6 -29 -68q6 -8 12 -8q12 0 52 7t46 7q8 0 20.5 -5t20.5 -5q4 0 11.5 5t13.5 5q14 0 45 -10v-25q-12 -2 -6 -8l-10 8q-12 2 -33 -14 q-10 4 -41 4q-12 0 -37 -7t-37 -7q-6 -6 2 -8q-12 4 -24 4q-55 0 -68 -84q-14 -102 -51 -129l6 6q-10 2 -27 8v21q0 8 9.5 21t9.5 22q0 8 -8 16q6 39 18 55v33l-20 2q-35 2 -41 -16q-4 4 -25 4q-6 0 -18 -12l2 -9q0 -16 -11.5 -49t-11.5 -49q-8 -14 -20 -14q-23 0 -27 10 l-10 4v6q0 10 12 41t12 47q0 4 -14 4q-4 0 -44 -19.5t-69 -19.5q-8 0 -19 19.5t-15 13.5l6 10q-10 10 -13 7zM270 279l13 -7l10 11q25 -2 61 4q15 61 15 59q0 18 -7 25q-53 -2 -67 -27q-12 -33 -25 -65z" />
<glyph unicode="$" horiz-adv-x="692" d="M18 170q6 6 7 18q31 16 65 17q6 0 11 5t10 5h92q2 0 3 5t5 5q6 0 4 -4t0 -6q8 23 23 33q-2 0 -5 2q-20 0 -20 -4l4 -4q0 2 -12 2q-10 0 -36 -5.5t-38 -5.5q-14 0 -20 3l-9 6l-8 -6v57q8 8 4 14q68 16 78 17q4 0 9 -5.5t10 -5.5l4 6q10 0 25.5 2.5t21.5 2.5q2 0 8 -2.5 t10 -2.5q6 0 11.5 5.5t9.5 5.5t7 -3t7 -3q6 0 15.5 5t15.5 5h2q2 0 -2 8q0 2 5 2t91 69.5t102 69.5q2 0 7.5 -2t7.5 -2q4 0 4 10q2 4 6 5q31 0 41 -13l10 -45q0 -12 -13 -18t-13 -7t-8.5 -2t-6.5 -6l-10 -10q-12 16 -23 17q4 0 -104 -64q12 -4 23 -12h8q18 0 24 6h19 q14 -2 20 -2l4 -23q-14 -6 -14 -16l-12 10l-9 -10l-8 2q-6 -2 -2 -4q-8 6 -35 0q-29 -6 -30 -16l-11 8q-10 -10 -20 -10l-8 6l-10 -11q-29 -4 -31 -4q-12 -6 -12 -28l-13 2l-12 -11q4 -4 12 -6q4 2 21 2l35 -4q6 0 6 4l-2 7q-2 -4 -2 -7q0 -4 8 -4q6 0 6 2l-2 4q0 -6 4 -12 q25 6 66 21h18q2 0 2 -9h20q4 0 7 -4q0 -20 -52 -28q-68 -12 -69 -13l-17 -20q-8 6 -30 6q-61 0 -86 -25q4 -12 14 -34l2 -21q0 -8 27.5 -24.5t38.5 -16.5q14 0 42.5 2t43.5 2q6 0 21 7.5t26 7.5l10 10q12 14 55 33q53 25 62 28q20 20 67 60q19 -5 19 -17q0 -23 -103 -96 q-68 -43 -133 -86q-23 0 -67.5 -5t-67.5 -5q-18 0 -59 26.5t-50 42.5q-14 33 -10 76q-2 4 -10 13q-6 -2 -52 -20l-46 -19q-8 0 -39 16q-14 23 -15 43z" />
<glyph unicode="%" horiz-adv-x="667" d="M31 432q6 41 26 125q6 18 56 98q47 74 47 88q0 20 -21 41v23q84 35 107 35q6 0 10 -4t13.5 -4t34 -3.5t36.5 -3.5q61 0 86 31l8 -10q6 10 17 10q41 0 85 39t58 39q4 0 25.5 -4t31.5 -6q-2 -6 -2 -13q0 -2 3 -8t3 -10q0 -12 -49 -44t-51 -56q-61 -100 -176 -349 q-23 -51 -72 -149q-82 -143 -149 -344q-16 4 -17 4q-4 0 -14 -4t-14 -4q-6 0 -29 31q12 14 35 92q16 55 55 69q160 334 293 641q-4 16 -12 17q-14 0 -44 -10.5t-36 -10.5l-33 4l-16 -14q-6 2 -15 4q-8 0 -45 -49q-16 -2 -25.5 -25.5t-2.5 -38.5l-11 5q-8 -63 -8 -109 q-10 -8 -47 -86q-31 -63 -55 -63q-4 0 -9.5 -5.5t-11.5 -5.5q-14 0 -26 2l2 2q0 10 -19 11q-8 0 -13 10t-9 12zM109 510q0 -2 4 -9t4 -12q14 23 33 68q2 16 8 45q-25 -10 -47 -88q-2 -2 -2 -4zM328 35q66 -33 63 -33q43 0 174 234l13 -3q0 18 11 55.5t11 53.5q12 17 12 23 q-39 70 -63 69q-4 0 -11.5 -4t-13.5 -4v8h-4q-10 0 -37.5 -32.5t-27.5 -43.5q-16 -25 -56 -71q-14 -35 -39 -107q-18 -25 -22 -71q-6 -61 -10 -74zM403 113v12q0 20 36 84.5t42 81.5q18 16 54 49l-9 -12l11 -2l-15 -17l10 -4q-4 -6 -51 -102q-29 -61 -61 -97z" />
<glyph unicode="&#x26;" horiz-adv-x="526" d="M31 135q39 47 75.5 93t98.5 77q-2 0 -2 2q2 2 8 6q-27 25 -55 43q6 53 59 95q16 12 96 59q25 -2 51 61q25 55 25 86q0 10 -12 13q16 43 33.5 88t62.5 45q2 0 2 -5t4 -5q6 0 6 4l-2 4q1 -33 17 -39q-23 -43 -49 -115q-37 -100 -46 -119q45 -23 46 -53q0 -6 -5.5 -15 t-5.5 -14q2 4 -12 5q-6 0 -16.5 -7.5t-18.5 -7.5q-25 0 -16 -6q-10 10 -37 10q-29 0 -88 -47q4 -4 9 -8t24 -4q12 -12 36 -33q-10 -14 -10 -45q-8 -4 -53 -38t-51 -34q-12 0 -55.5 -52t-43.5 -64t19.5 -32t32.5 -20q6 0 6 -3t4 -3q8 0 32.5 10.5t43.5 10.5l8 -6q6 0 8 5t8 5 q53 0 181 102l-11 11l29 16q31 0 16 -12l11 -9v-22q-18 -2 -42 -22.5t-24 -36.5q2 4 -12 4q-4 0 -36 -26t-36 -28q-27 -10 -61 -41q-18 -59 -17 -71q-39 -61 -85 -196.5t-77 -184.5l-8 4l-8 -4q0 6 -3 15t-3 13q0 8 20 64q23 63 25 76q8 31 27 131q10 41 32 110v19 q-8 8 -22 8q-8 0 -17 -8l-10 10q-6 0 -18.5 2t-20.5 2q-23 0 -45 49t-22 78z" />
<glyph unicode="'" horiz-adv-x="378" d="M164 645q0 2 35 53q20 29 18 62q14 2 25 6q-20 12 -22.5 30.5t-8.5 26.5q20 35 84 97q6 0 18.5 -3.5t16.5 -3.5q14 0 41 -43q-23 -14 -19 -63q-12 -27 -26 -51q-25 -41 -31 -41q-20 0 -12 -29h-4q-16 0 -41 -27.5t-37 -27.5q-6 0 -13.5 5t-11.5 5q-14 0 -12 4z" />
<glyph unicode="(" horiz-adv-x="421" d="M0 113l2 -2q2 0 4 8q-2 -6 -2 45v14q16 14 16 49q0 25 39 92.5t35 81.5q35 33 92 121q12 25 41 70q66 68 193 205l10 -11q-2 4 -2 7q0 2 6 4l10 -4q10 6 21 6q33 0 33 -39q0 -23 -50.5 -48.5t-50.5 -43.5q-61 -23 -151 -148q-61 -94 -123 -188q-14 -45 -60 -129 q6 -4 17 -13l-10 7q-2 -10 -7.5 -18.5t-5.5 -10.5q0 -4 9 -18l-3 6v-4q-2 -8 5 -21l-9 4q-4 0 -4 -6q0 -25 11 -39l-5 -10l5 -8q-2 -8 -3 -17q0 -39 43 -69q37 -23 72 -47l-12 -13q-2 2 -49 6q-31 2 -66 52q-33 43 -43 79q8 20 8 25q0 14 -16 25z" />
<glyph unicode=")" horiz-adv-x="428" d="M-25 -76q92 43 168 137q90 113 90 142q31 23 70 164q35 129 35 182q0 37 -27 139q-4 10 -16 29q2 10 19.5 26.5t27.5 16.5q4 0 6 -5t8 -5q51 0 37 -109q10 0 10 -8q0 -6 -4 -16.5t-6 -16.5l6 -8q-6 -33 -18 -96q4 -4 4 -11q0 -8 -6 -26.5t-6 -26.5q0 -10 6 -16 q-37 -100 -35 -127q-29 -23 -39 -78q-37 -61 -88 -121q-12 -18 -158 -170q-4 0 -21.5 -10t-23.5 -10q-20 0 -27 6t-5 8z" />
<glyph unicode="*" horiz-adv-x="548" d="M41 174v43q10 0 35.5 7t40.5 7l10 11q10 0 78 28q-16 39 -70.5 59.5t-64.5 39.5v4q0 6 -6.5 16t-8.5 17q33 10 39 10t9 7t10 7q12 0 38.5 -20.5t30.5 -32.5l4 8q16 -16 54 -49l-7 -2q4 -2 13 -8q66 96 53 178l10 -4q2 0 2 2q-8 6 -8 10q0 6 12.5 10t14.5 8h41 q12 0 20 -10q-4 -6 -6 -12q4 -8 12 -8q-29 -63 -90 -185q4 -2 8 -2q6 0 15 2h14l10 11q14 2 21.5 6t9.5 4v-8q2 -2 6 -2t6 8t9 8l10 -6q6 0 27.5 12t25.5 12t8 -2t8 -2v9q2 2 4 2q30 -1 48 -15q-14 0 -15 -6l4 -8q-18 -2 -51 -14q-41 -14 -45 -27q-4 4 -14 4q-2 0 -30 -17.5 t-30 -17.5q-20 0 -49 -18q45 -47 131 -148q-14 -12 -10 -16q-4 4 -15.5 7t-12.5 5t-4 2t-62 49q-63 57 -68 60q-14 -29 -33 -103q-2 -2 -18 -41q-12 -12 -33 -34q-6 4 -28 6q10 8 12 34.5t33 75.5v39q-2 2 -6 4q-14 0 -43 -20.5t-44 -20.5q-31 0 -30 -2l4 -8q-12 12 -39 37z " />
<glyph unicode="+" horiz-adv-x="509" d="M39 195v12t2 17.5t2 17.5q23 27 57 26q10 0 27.5 -2t28.5 -2q12 0 34 12q0 2 5 3q8 0 6 -5q-2 -4 0 -6q25 12 41 78t63 92q23 -8 23 -28q0 8 -45 -109v-12l6 4q-2 -4 10 -4q6 0 15.5 -3t15.5 -3q4 0 5 3t5 3t11 5t14 5q2 0 7 -3t7 -3q6 0 19.5 7t21.5 7h50h50l10 -22 q-10 -2 -33.5 -14.5t-37.5 -12.5q-2 0 -7.5 3t-7.5 3q-4 0 -12 -5t-22.5 -5t-8.5 -10q-6 4 -26 4q-6 0 -11.5 -4t-9.5 -4q-41 0 -55 -17q-14 0 -18 6q-31 -33 -50 -98q-23 -90 -30 -106l-11 10l-4 -10q-29 18 -28 34q0 25 22 43q4 35 23 99q-6 8 -23 8q-4 0 -16 -7t-27 -7 q-4 0 -8 -2l4 -9q-8 4 -27 4q-23 0 -40 -10q-6 12 -27 17z" />
<glyph unicode="," horiz-adv-x="378" d="M61 -113q0 2 35 54q20 29 19 61q14 2 24 6q-20 12 -22 30.5t-8 27.5q20 35 84 96q6 0 18 -3t16 -3q14 0 41 -43q-23 -14 -18 -64q-12 -27 -27 -51q-25 -41 -30 -41q-20 0 -13 -29h-4q-16 0 -40.5 -27.5t-37.5 -27.5q-6 0 -13 5t-11 5q-14 0 -13 4z" />
<glyph unicode="-" d="M37 260q6 6 55 16.5t66 10.5q10 0 31.5 -10.5t33.5 -10.5q2 0 7.5 3t7.5 3q8 0 21 -5t22 -5q14 0 45.5 2t48.5 2q20 1 28 -28q-92 -31 -186 -31q-4 0 -24 10l-9 -10h-20q-16 0 -45 -5t-45 -5q-6 0 -15.5 10t-11.5 12v4q0 6 -10 37z" />
<glyph unicode="." horiz-adv-x="333" d="M76 29q6 27 6 26q49 76 94 76q12 0 27.5 -15.5t15.5 -27.5q0 -37 -61 -90q-12 0 -37 -6q-18 14 -45 37z" />
<glyph unicode="/" horiz-adv-x="423" d="M31 -6q10 29 68.5 169t68.5 159q41 63 117 219q90 184 86 221l14 4q2 4 2 6q0 6 -8 12q10 10 33 23q27 -14 30 -16q21 -13 21 -27q-12 -12 -4 -35q-23 -4 -34 -29.5t-19 -50.5q-25 -31 -68 -100l-8 -8l10 -11q-29 -20 -47 -96l-10 6q-45 -78 -113 -243q-14 -4 -16 -17.5 t-4 -25.5q-31 -102 -80 -187q-2 2 -7 2q-4 0 -10 -8z" />
<glyph unicode="0" horiz-adv-x="356" d="M20 111q0 63 89 198q63 94 124 191q14 29 43 28q39 0 51.5 -20.5t22.5 -36.5q-14 -6 -22 -31q-6 -31 -19 -39l21 -10q-10 -14 -15 -39q-2 -2 -10 -59q-2 -10 -18 -51q-12 -33 -6 -49q-12 -10 -37 -62q-23 -41 -43 -49l10 -2q-33 -41 -78 -84l-10 4q-14 -4 -41 -14 q-12 29 -55 41q2 6 2 16t-4.5 32.5t-4.5 35.5zM86 104q0 -29 16 -49q63 49 109.5 144.5t42.5 173.5l-29 4q-12 -10 -30 -31l10 -14q-37 -14 -80 -103q-39 -80 -39 -125z" />
<glyph unicode="1" horiz-adv-x="264" d="M25 14q0 33 34 74q-6 6 -14 10q10 8 29.5 59.5t34.5 51.5l-11 2q37 74 62 168h22q7 -4 17 -12q-2 -4 -2 -27q0 -4 -7 -10q-2 8 -6 8t-6 -2q10 -8 10 -19q0 -31 -37.5 -110.5t-37.5 -110.5q-14 -12 -9 -28l-28 -56q-16 -2 -39 -20q-12 12 -12 22z" />
<glyph unicode="2" horiz-adv-x="411" d="M10 -20v49q4 4 20.5 9t16.5 19q-4 6 -8 9q41 23 84 135q37 37 78 108q59 100 67 115l-12 8q-35 -29 -78 -55q-78 -61 -86 -105q0 2 -2 2q-4 0 -11 -3t-11 -3q-6 0 -14.5 3t-12.5 3v7q0 6 -3 15t-3 13q0 25 67 80q47 35 93 72q100 100 151 100q6 0 20.5 -15.5t16.5 -17.5 q-25 -43 -25 -63q0 -8 4 -16q-23 -16 -91 -129t-76 -144q-43 -51 -72 -119q0 2 8 2h16q20 0 65.5 7.5t68.5 7.5q6 0 10 5t10 5q4 0 12.5 -3t12.5 -3q12 0 34.5 8t34.5 8q6 0 20.5 -3t20.5 -3q-2 -14 -12 -21.5t-14 -13.5q4 6 -11 6q-6 0 -21.5 -10t-23.5 -10q-2 0 -7 2t-7 2 q-4 0 -29 -12q-2 -2 -6 -2t-10 2t-10 2t-11.5 -7.5t-15.5 -7.5t-82 -29.5t-82 -29.5t-10 -5t-8 -5h-29l-33 18q2 2 2 4q-2 6 -6 9z" />
<glyph unicode="3" horiz-adv-x="446" d="M68 393q20 8 24 25q49 29 129 55l17 14q6 0 34.5 10.5t30.5 10.5t8 -2t11 -2q4 0 4 8q0 2 16 2q8 0 43 12.5t55 12.5q2 0 33 -33q-33 -68 -57 -68q-4 0 -5 -5t-3 -5q-14 0 -172 -170q2 -2 0 -8q0 -4 6 -4t24 -21q25 -27 25 -26l2 -11v-4q0 -8 2 -10q-2 -16 4 -47 q-14 -14 -12 -39q-68 -78 -137 -162h-27q-20 0 -47 39q86 39 153 164q-18 41 -41 41q-8 0 -24.5 -2t-26.5 -2q-6 0 -16 14.5t-15 16.5q4 16 21 49q-4 -2 -4 -4q0 -4 6 -6q49 53 147 163q2 0 33 33q-6 4 -16 6q-2 0 -2 -2q0 -4 6 -10q-6 8 -14 8q-41 0 -123 -84 q-12 -4 -23 -16l4 -8q-20 4 -51 20q-12 18 -22 47zM305 436h19v8h-19v-8z" />
<glyph unicode="4" horiz-adv-x="471" d="M-16 127q0 18 202 256q39 53 125 152l-10 4q23 43 82 123q25 -4 49.5 -11.5t24.5 -38.5q0 -12 -16.5 -39.5t-14.5 -37.5q-25 -2 -25 -19q-27 -51 -110 -254v-14q2 -2 4 -2q6 0 14 8l10 -10q18 20 84 20q2 0 7.5 -2t7.5 -2q-8 0 49 14l12 11q10 -12 27 -13q-2 -2 -2 -8 t6 -12q-4 -2 -64.5 -28.5t-60.5 -28.5q2 6 -10 6q-14 0 -8 -6q0 -2 2 -2l-11 8q-10 -14 -24 -15q-2 0 -10 2h-13q-33 0 -71 -71v-4q2 -23 -11 -54q-14 -41 -16 -51l-10 -10l10 -10q-16 -12 -20 -56q-8 -4 -17 -20h-16q-16 0 -17 25q0 25 21.5 71.5t21.5 71.5q0 12 -4 24 q4 12 21 35v13q-4 4 -19 4q-27 0 -49 -25q-6 2 -14 4q-14 0 -15 -20q2 6 -10 6q-18 0 -18 -25q-6 0 -15.5 -5t-13.5 -5q-16 0 -40.5 13.5t-24.5 27.5zM141 225q0 -2 11 -10l-5 6l9 4q4 0 10 -3t8 -3q10 0 31 17l10 -7q18 0 32.5 72t22.5 72v16q-35 -43 -69 -86 q-59 -72 -60 -78z" />
<glyph unicode="5" horiz-adv-x="419" d="M2 -23q0 18 7 52t7 53q10 10 23.5 10t9.5 6q14 -4 21.5 -22.5t13.5 -22.5q12 39 18 88q12 84 35 252q-4 2 -10 8v43q27 23 18 39q6 4 32 38t32 34t4 -4t0 -6q4 6 4 14l6 -8q8 12 29 24l10 -6l10 11q18 0 50 12t49 12l10 10q10 0 34.5 7.5t35.5 7.5q2 0 13 8t15 8h56 q12 0 43 -16v-29q-4 2 -11 2q-4 0 -14 -2h-12l-4 -6q-23 0 -46.5 -12.5t-29.5 -12.5q-23 0 -17 -4q-2 2 -6 2t-8 -2h-8l-125 -65q-10 0 -33 -25q-29 -29 -37 -33q-4 -25 -12 -34q-14 -57 -31 -115q-18 -76 -12 -113q-10 -51 -18 -102q-14 -68 -37 -92q-2 -25 0 -33 q0 -2 -19 -31q-10 -18 -26 -18q-6 0 -9 -2q2 -2 9 -6q-12 4 -41 37.5t-29 43.5zM70 47q2 -6 6 -14l-4 12q4 6 4 8t-2 4q-4 -2 -4 -10z" />
<glyph unicode="6" horiz-adv-x="362" d="M20 20q0 23 14.5 61t12.5 64l8 -4q25 74 95 207q-18 18 -29 12q12 55 45 56q4 0 4 -6l2 -4q18 29 55 83q0 10 15 11q10 18 28 41l-6 6q10 8 62 88q45 68 59 67q28 1 57 -24v-4q0 -16 -55 -80q-68 -76 -76 -86q-12 -2 -39 -62q-12 -8 -36 -55q-18 -35 -19 -158 q0 -53 -49 -157q-55 -113 -100 -113q-12 0 -30 22.5t-18 34.5zM88 68h8v14h-8v-14zM96 92l10 14q6 -4 13 -4q-2 6 -2 11l28 41q1 32 19 71q-29 -10 -68 -133z" />
<glyph unicode="7" horiz-adv-x="468" d="M-53 -258q18 8 35 74q18 12 28 42.5t13 30.5q25 20 50 84t58 86l-10 2q8 12 14 19q-10 18 -29 26q0 57 80 68q-2 2 -2 8q0 10 14.5 38t22.5 32q14 12 98 194l-8 9q-20 -10 -18 -15q2 4 -10 4q-14 0 -7 -8l-10 8q-41 -12 -121 -43q-2 -6 0 -8l2 -2l-12 -10l10 -8 q-2 -45 11 -56q-4 -2 -17.5 -14t-19.5 -12q-12 0 -35 28q-27 41 -29 41q-2 27 -4 29q-4 16 -20 21v39q10 10 22 10q2 0 19.5 12t19.5 12q10 0 30.5 -2t31.5 -2l4 4h24l11 11h26q53 0 53 2t5.5 3t17.5 5t20 4q2 0 13.5 8t17.5 8l10 -6q2 0 28 24.5t48 24.5q6 0 26.5 -12 t20.5 -18l-6 -7q4 -4 10 -14q0 -2 -10 -8l10 -12q-25 -10 -69 -39q-29 -20 -62 -74q-25 -43 -47 -86q2 -4 8 -14q-16 -6 -38.5 -46t-16.5 -57l-10 10q4 -16 10 -16q2 0 6 1t17.5 3t19.5 2q2 0 2 -5t4 -5q18 0 56 3t59 3q-6 0 27 -18q-4 -2 -12.5 -14.5t-14.5 -12.5 q-25 0 -16 -6q-8 10 -25 10q-8 0 -27.5 -4t-31.5 -4q-27 -12 -60 -27q-4 0 -14 3t-17 3q-25 0 -54.5 -49t-31.5 -80h-16q2 -8 6 -12q-27 -23 -26 -39q0 -4 4 -4q-39 -43 -62 -123q-8 -12 -26 -67q-14 -45 -41 -58h-15q-2 12 -22 17q4 10 4 24q0 12 -4 27z" />
<glyph unicode="8" horiz-adv-x="366" d="M18 100q4 6 11 19q14 74 30 110q14 23 35 70q10 4 22.5 29.5t10.5 42.5q37 4 43 24q2 6 2 54q0 55 0 53q25 35 59 108q47 39 50 62q27 18 81 51h21q8 6 14 10q10 -12 39 -31l-4 -14l4 -10q-41 -70 -151 -238q-14 0 -13 -59q-14 -6 -18 -22.5t-8 -32.5l-10 4 q-8 -8 -17 -21q8 0 8 -65q0 -8 -6 -6l-6 2q6 -14 6 -31q0 -10 -4 -22.5t-4 -77.5q0 -4 -8 -7.5t-10 -7.5q0 -10 -5 -31q-35 -76 -59 -75q-8 0 -16.5 -10.5t-14.5 -10.5q-12 0 -41.5 28t-31.5 40q2 10 2 20q0 25 -11 45zM88 92q0 -25 8 -39q10 20 27 21q-4 12 -4 18q0 4 6 0 q6 4 16 10q-2 -6 -2 29q0 8 6 6q9 33 17 101q2 2 2 6q0 8 -8 16q-68 -109 -68 -168zM227 508l6 -39q8 20 39 59l-10 4q4 5 49 64l-12 12q-18 -12 -39 -47q-23 -43 -33 -53zM301 610l14 -10q1 7 17 23q-14 2 -19 6zM322 627h14v8h-14v-8z" />
<glyph unicode="9" horiz-adv-x="434" d="M0 27q10 14 12 12q0 10 -3 15t-3 7q2 4 4 14.5t8 37.5q14 25 39 75l11 -6q27 43 96 116t96 114q2 0 74 61q47 39 82 39q6 0 26.5 -11.5t24.5 -15.5q-12 -27 -18 -71q-33 -39 -121 -224l6 -4q-14 -8 -28.5 -55t-31.5 -59l11 -4q-31 -49 -31 -93q0 -6 6 -12l-16 -10l4 -8 q-4 -2 0 -15l-10 4q-6 -35 -37 -118q-29 -76 -33 -123q0 2 -2 2q-8 0 -8 -19q0 -33 2 -24q-8 -4 -27 -33q-12 -16 -45 -16q-4 25 -16 10l-6 47q53 68 61 131l8 -6q23 76 80 221l-10 4q4 31 24 88q6 6 7 11q-2 4 -5 6q-35 -33 -69 -66q-51 -49 -70 -49q-29 0 -12 -10 q-27 10 -80 37zM78 82q0 -12 4 -29q27 41 41 41t10 -6q47 45 123 139q8 18 31 56q8 0 29.5 42t21.5 44q2 10 -6 10q-16 0 -65.5 -48t-51.5 -63l-8 4q-68 -76 -127 -155l6 -8q-8 -6 -8 -27z" />
<glyph unicode=":" horiz-adv-x="378" d="M88 25q8 25 8 24q49 78 94 78q12 0 27.5 -15.5t15.5 -27.5q0 -39 -61 -92q-12 0 -37 -4q-18 14 -47 37zM158 479l6 27q49 76 94 76q12 0 27.5 -15.5t15.5 -27.5q0 -37 -61 -90q-12 0 -37 -7q-18 14 -45 37z" />
<glyph unicode=";" horiz-adv-x="378" d="M61 -113q0 2 35 54q20 29 19 61q14 2 24 6q-20 12 -22 30.5t-8 27.5q20 35 84 96q6 0 18 -3t16 -3q14 0 41 -43q-23 -14 -18 -64q-12 -27 -27 -51q-25 -41 -30 -41q-20 0 -13 -29h-4q-16 0 -40.5 -27.5t-37.5 -27.5q-6 0 -13 5t-11 5q-14 0 -13 4zM158 479l6 27 q49 76 94 76q12 0 27.5 -15.5t15.5 -27.5q0 -37 -61 -90q-12 0 -37 -7q-18 14 -45 37z" />
<glyph unicode="=" horiz-adv-x="520" d="M31 119q6 0 9 18.5t21 26.5q31 12 56 12q14 0 40.5 -3t39.5 -3q4 0 12 3t12 3q8 0 24.5 -3t24.5 -3q6 0 13.5 5t13.5 5q2 0 7 -2t7 -2q16 0 51 7t54 7q25 0 39 -6l10 11q16 -6 37 -7q6 -10 10 -16q-12 -12 -18 -12q-37 0 -115 -19.5t-115 -19.5q-4 0 -4 -5t-4 -5l-10 4 l-15 -15q-8 6 -49 6q-10 0 -52 -15t-48 -15q-4 0 -10 5t-14.5 5t-6.5 31l-8 -2zM76 262v21q4 2 14 10q-6 4 -10 10q8 0 32.5 15.5t51.5 15.5q4 0 4 -5t4 -5q8 0 22.5 5t22.5 5v-8q2 -2 4 -2q-10 0 29 10l10 10q31 0 90.5 2t89.5 2q17 0 17 -14q0 -12 -11 -25q-4 4 -24 4 q-8 0 -23.5 -7t-23.5 -7q-4 0 -9.5 5t-9.5 5q-6 0 -6 -4h-4q-10 0 -33.5 -10t-27.5 -10t-12.5 -3t-14.5 -3q-6 2 -6 0l4 -7l-10 9q-35 -16 -70 -33q-25 -8 -80 -6h-16l10 10q-6 2 -14 10z" />
<glyph unicode="?" horiz-adv-x="466" d="M18 20q18 53 60 54h12q23 -29 29 -47q-16 -10 -33 -37h-35q-8 0 -18 14t-15 16zM74 557v72q147 180 399 180q6 0 21.5 -19.5t15.5 -27.5q-27 -39 -18 -55q-41 -31 -86 -74l6 -4q-61 -47 -131 -135q-59 -74 -117 -148q-14 -16 -29 -35q-4 0 -20 -8q2 90 182 299 q45 43 125 139q-6 8 -23 9q-2 0 -17 -7.5t-24 -7.5q-29 0 -47 -12t-22 -12t-4 4h-4q-23 0 -74 -53q-33 -12 -33 -29q0 -4 4 -6q-37 -18 -26 -80q-27 -4 -27 -8l4 -4q-16 -2 -47 6l6 8z" />
<glyph unicode="@" horiz-adv-x="1007" d="M-25 -106q0 82 43 196q41 104 97 182q14 25 47 68q51 47 49 59q80 86 244 244q45 25 123 86q53 18 159 49l11 10q29 -4 90 -8l10 -10q100 -31 100 -129q0 -20 -19.5 -114.5t-27.5 -112.5q-27 -61 -86 -162q-76 -129 -102 -129q4 0 -64 -64q-4 -2 -4 -10q-2 2 -8 2 q-14 0 -42 -6t-42 -6v8q0 2 -4 2q-14 0 -21.5 21.5t-15.5 29.5l10 11l-28 -13q-6 0 -17.5 -12t-17.5 -12t-45 -21q-6 0 -19.5 6.5t-21.5 6.5q0 18 -21 20q2 2 2 4q0 4 -3 11.5t-3 13.5q0 59 137.5 207.5t194.5 148.5q6 0 8 -2t6 -2q14 -18 45 -53q-23 -16 -41 -47 q-23 -39 -32 -52l10 -4q-47 -49 -84 -190l12 -12l8 10q84 41 152 162q53 92 70 131q33 74 40 145q2 10 11.5 35.5t9.5 40.5q0 20 -28.5 48t-49.5 30q-20 18 -49 18q-27 0 -37 -10q2 2 2 4t-10 2q-6 0 -29.5 -7t-15.5 -11l-10 8q-68 -31 -148 -82q-104 -68 -114 -107 q-14 0 -35 -24q-27 -31 -29 -33q-111 -86 -233 -299q-14 -27 -15 -39q-20 -31 -35 -90q-18 -70 -30 -92l10 -4q-2 -76 8 -104.5t59 -80.5q25 0 41 -20q6 0 39 -10q27 -8 35 -9h129q10 0 33 7.5t31 7.5q2 0 2 8q0 2 4 2q2 0 7 -3t7 -3q8 0 50 20.5t51 20.5q4 0 9 -3t9 -3 t16.5 10t14.5 10q16 0 15 5t5 5l14 -4q72 49 222 133q-6 -18 -57.5 -63t-69.5 -45q-2 0 -20.5 -15.5t-35.5 -15.5q-6 0 -34.5 -22.5t-34.5 -22.5q-4 0 -4 3t-4 3q-6 0 -13.5 -8t-13.5 -8t-17.5 -2t-15.5 -2l-16 -15l-15 5q-23 0 -38 -19q-14 -2 -39 -14t-41 -12 q-6 0 -13.5 3t-11.5 3q-16 0 -14 -15l-13 9q-12 0 -40 -15q4 2 4 6t-2 4l-11 -10v2q0 4 -4 8l-4 -10l-6 10l-10 -12q4 2 4 8q-2 4 -4 4l-10 -10q-20 18 -103 17q2 2 2 4q0 4 -8 4q-31 16 -88 53l6 4q-70 43 -70 146zM418 141l10 -16l-2 2q0 6 8 6q12 0 21 -4q102 84 131 207 l-13 6q-27 -29 -51 -57q-37 -41 -39 -64q-18 -4 -37 -35q-27 -43 -28 -45z" />
<glyph unicode="A" horiz-adv-x="550" d="M-106 129q0 18 21.5 35.5t39.5 17.5q2 0 10 -5t25 -5q6 0 8 5t8 5h66h8q0 2 -4 4q25 4 37 41q18 53 20 56q14 31 53 84l-8 4q16 39 53 114q57 100 156 312q10 8 29 24l-4 13l4 2q2 6 2 14q0 18 -8 39q20 43 41 43q47 0 55 -33q-6 -76 -33 -223l6 -6q-17 -132 -17 -227 q0 -19 1 -37h2l-2 -3q-2 -6 -8 -10q11 -17 11 -58v-7v-6q0 -42 13 -60q-8 0 -14 -4v-10q18 -16 43 -17q4 0 13 2.5t14 2.5l10 -13q-8 -2 -21 -12q-37 -6 -59 -18q27 -55 27 -80q0 -6 -3 -13q16 -10 20.5 -38.5t4.5 -30.5q-10 -23 -61 -23q-20 0 -37 47q0 18 20 29l-10 4v37 v14q-6 16 -14.5 35t-26.5 19q-6 0 -8 -3l6 -6l-10 9l-11 -11q-8 4 -34 4q-4 0 -9.5 -5t-9.5 -5q-35 0 -36 -5t-5 -5q-6 0 -17 3t-18 3q-4 0 -9 -3t-9 -3l-10 -8q-12 0 -35 -17q-6 6 -25 6q-14 0 -24 -41q-8 -33 -8 -53q0 2 -12.5 -11t-8.5 -38h-4q-14 0 -22 -16 q-10 4 -48 26q10 37 39 109q-14 -2 -51 -14.5t-55 -12.5q-2 0 -2 -8h-25q-10 0 -20 15.5t-10 25.5zM162 213l12 -12q-2 4 -2 6q0 4 8 4q6 0 21.5 -2t21.5 -2q2 0 2 8q0 2 4 2h27q10 0 32.5 2t35.5 2q6 0 19 5t19 5t11.5 -5t9.5 -5v8q2 2 6 2q10 0 14 -4q5 12 17 35v141 q-18 23 -19 50q0 18 11 30q-4 8 -4 23q0 41 6 57q-6 10 -6 29q0 12 6 34.5t6 35.5v67q-2 -20 -187 -338q-10 -33 -38 -98q-4 -29 -33 -80z" />
<glyph unicode="B" horiz-adv-x="661" d="M-25 711q2 12 15 26q-6 2 -15 11q51 37 95 51l12 10q16 0 55 20q12 0 54 14.5t51 14.5q4 0 9 -2t9 -2q14 0 10 4l11 10h53q-4 0 26 13q49 22 104 22h5q8 0 6 -4t0 -6l8 10q6 0 15.5 3t15.5 3q102 0 102 -26q0 -4 -4 -14.5t-2 -22.5q-33 -10 -35 -37h-1q-14 0 -84 -49 q-72 -51 -89 -70q-6 -2 -4 -8h-4q-2 0 -37 -16l-4 -7l4 -8q-4 2 -8 2q-20 0 -20 -6q0 -2 8 -2q14 -2 10 2q4 -2 14 -8q43 16 64 16l10 11q6 -4 17 -7q4 0 9 5.5t9 5.5h4l-2 -8q0 -2 4 -3q4 0 5 3.5t5 3.5t6.5 5t8.5 3l6 -6q12 6 43 6q12 -8 96 -31q53 -14 90 -84v-57 q0 -6 -6 -6q0 -2 2 -2q-8 -6 -34.5 -51.5t-33 -45.5t-9.5 -13t-3 -15q-14 -18 -65 -74q-55 -61 -66 -64q-96 -51 -104 -73l-10 10q-2 -4 -35 -21.5t-35 -17.5q-8 0 -18.5 -13.5t-16.5 -13.5q-31 -12 -25 -16q-2 2 -6 2q-41 0 -84 -45q-4 0 -10 3t-10 3t-5 -3t-6 -3t-11.5 -9 t-12.5 -9q-10 0 -18 8q-4 -10 -15 -33q-10 0 -29.5 2t-27.5 2q0 12 -3 33.5t-3 34.5q0 12 20 30v7q0 4 19 51q-4 2 -15 10q23 53 109 342q-2 4 -4 4q-4 0 -10 -4q4 2 4 4q-29 14 -37 10q4 10 0 39q-2 20 26 39l-4 -6q2 -2 9 -2h2q2 0 -2 6l4 4q27 0 47 35t16 59q12 20 12 37 q0 10 -8 15q2 8 17 20v14q-2 2 -7 2q-10 2 -20 -4l-18 -14l6 6q0 2 -6 2q-16 0 -39 -18q-4 0 -5 2t-4 2q-16 0 -55 -33q-47 -37 -55 -41h-25q-6 0 -19 9.5t-18 11.5zM119 129q10 0 27.5 -5t25.5 -5q4 0 6 5t8 5q4 0 10.5 -3t10.5 -3q12 0 10 6l10 8q2 0 39 21l10 -4 q6 0 29 17t30 17t6 2.5t5 2.5t34 22.5t36 22.5q18 0 50 34.5t34 34.5q14 0 10 -4l29 33q49 63 112 141q9 15 15 62q0 2 -12.5 19t-18.5 17t-19 7l-12 8q-23 0 -70 8t-69 8q-10 0 -30.5 -5t-31.5 -5l-10 -10q-20 -2 -42.5 -6.5t-31.5 -18.5l-22 2l-12 -8h-3q-39 0 -59 -49 q-25 -59 -26 -62q-14 -55 -43 -168q-4 -10 -21 -26q10 -4 10 -6q-2 -4 -4 -2q0 -23 -8 -58q-10 -45 -12 -55zM299 694q20 6 47 35q16 6 57 38t54 38v24l8 -6l10 11q8 -2 10 -3q4 0 3.5 6.5t13.5 8.5q-18 0 -59.5 -8.5t-61.5 -8.5q-6 0 -13.5 -5t-13.5 -5q-4 0 -6 5t-8 5 q-2 0 -21.5 -10t-19.5 -12q10 -4 14 -21q4 -29 4 -28q-24 -24 -24 -42q0 -13 6 -22z" />
<glyph unicode="C" horiz-adv-x="632" d="M-2 164l2 63q33 39 33 92q0 18 63.5 90t85.5 85l-10 4q10 4 10 22q25 0 19 19q16 6 48 40.5t32 47.5l12 -2q6 0 35.5 37.5t29.5 39.5q45 37 129 119q104 111 121 111q6 0 45 -41q-31 -53 -59 -107q-35 -63 -37 -114q0 2 -2 2q-8 -4 -16 -10q10 -12 16 -7q-25 -12 -37 -49 q-16 -55 -20 -61l-23 -4v47q25 16 25 88q16 33 24 69l-12 13q-55 -49 -113 -99q-63 -59 -100 -108q-2 2 -6 2q-12 0 -12 -6t6 -8q-41 -39 -80 -76q-47 -47 -66 -86q-23 -6 -51.5 -83t-28.5 -110q0 -4 8.5 -24.5t10.5 -28.5q10 -18 61 -53l11 -10q27 -10 32 -11q25 0 95 11 q12 6 38 20q10 2 29 4q16 20 41 21q2 0 2 8q0 2 4 2t9.5 2t9.5 2q35 23 98 72q27 18 149 157q9 -4 25 -14q2 0 -25 -18l9 -5q-6 -4 -30 -42.5t-24 -47.5l-12 2q-8 0 -8 -6l4 -12q-23 0 -55 -41q-6 0 -6 -5t-5.5 -5t-7.5 -5t-8 -5q-92 -66 -203 -134l-10 5q-6 0 -10 -7.5 t-11.5 -7.5t-29.5 -4q-20 -2 -33 0l-10 -10q-4 2 -12 2q-4 0 -13 -2h-14q-6 0 -10 7t-10 7q-8 0 -9 -2l4 -6q-45 25 -92 70q-55 55 -55 94z" />
<glyph unicode="D" horiz-adv-x="630" d="M-41 31q0 23 20.5 60.5t24.5 53.5q16 66 53 199q14 35 37 105q59 223 103 342q-14 16 -50 43q6 8 13.5 16t1.5 20l123 41q2 0 7 -2t7 -2q12 0 37.5 7.5t36.5 7.5q8 0 21.5 -2t19.5 -2l6 -7h78q18 0 57 -17t58.5 -17t60.5 -31.5t49 -54.5l-4 -35q6 4 0 6l-4 -8 q-6 -66 -144 -224q-111 -127 -194 -198q-72 -57 -144 -115q-86 -68 -136 -124t-107 -101l-10 10q-8 4 -21 29zM53 172q0 -10 13 -20q23 8 79 56t60 48q31 0 172 145q113 115 164 181q35 49 102 145q-2 0 -2 8q0 10 12 39v12l-16 7q-55 49 -84 49q-4 0 -10 -2t-11 -2 q-41 24 -63 24h-2q-12 0 -36.5 -7t-37.5 -7h-4q0 2 3 4t3 4q-2 2 -4 2q-6 0 -7 -5t-5 -5q-6 0 -17.5 2t-17.5 2q-8 0 -19.5 -7t-15.5 -7t-10 2t-10 2v-6q0 -4 -5 -3t-5 -2.5t-6.5 -3.5t-16.5 -12q20 -10 20 -14q0 -12 -32 -86q-39 -88 -41 -97q-33 -104 -105 -309q2 -2 2 -4 q0 -12 -23.5 -70.5t-23.5 -62.5z" />
<glyph unicode="E" horiz-adv-x="643" d="M-106 393q0 29 26 29l8 10q31 0 89.5 17.5t73.5 17.5t26 31q6 20 12 43q41 72 41 94q8 6 29 51q20 53 26 62q-2 4 -8 12q-4 -2 -12 -13.5t-17 -11.5q-4 0 -12 5t-12 5q-14 0 -20.5 16.5t-12.5 20.5q8 12 14 31q37 18 72 21l51 20l25 -4l14 14h10q25 0 39 -4l25 14 q8 0 21.5 5.5t19.5 5.5q2 0 7 -3t7 -3q8 0 22.5 8t22.5 8t22.5 -3t22.5 -3q4 0 12.5 5t12.5 5q16 0 50 5t50 5q6 0 21.5 -5t23.5 -5q6 0 19.5 5t19.5 5q23 0 27 -18q-29 -10 -72 -27q-8 6 -28 6q-6 0 -13.5 -5t-13.5 -5q-2 0 -7 2t-7 2q-8 0 -27 -5t-30 -5t-3 -6l-10 6 q-20 -4 -43 -4l-14 -14h-7q-10 0 -6 -5q-4 4 -10 5q-10 0 -31.5 -7.5t-25.5 -9.5l-13 -10q-4 6 -18 6q-6 0 -15.5 -7t-15.5 -7q-35 0 -82 -86q-39 -70 -49 -121q-27 -35 -47 -113l-8 2v-8q20 -4 82 -4q2 0 2 8q0 2 18 2q12 0 37 8.5t37 8.5q4 0 12 -3t13 -3q8 0 24.5 5 t24.5 5l10 10q6 -2 16 -6q4 0 5.5 3t5.5 3q12 0 36.5 7t36.5 7q37 0 54 -16q-51 -12 -52 -12q-6 0 -9 -5.5t-7 -5.5l-14 -16q-8 6 -37 6q-4 0 -4 -4q0 -10 -62 -10q-8 0 -8 -2l6 -6l-10 8l-4 -10l-6 10q-8 -6 -15 -21l-6 11q-8 -4 -2 -11q0 4 -12 4q-14 0 -6 -6l-8 6 q-4 -2 -5 -4q0 -4 7 -8q-6 0 -19 2q-10 0 -17 1t-7 -1l6 -6l-10 6q-2 -2 -8.5 -5t-7.5 -6t-62.5 -3t-81.5 -74q-16 -63 -33 -127l10 -4q-2 -20 -2 -39q0 -88 39 -88q4 0 4 -2t-2 -4t-2 -4h4q8 0 25.5 -8.5t25.5 -8.5q6 0 18.5 5.5t20.5 5.5q23 0 115 41l10 10q37 20 84 43 q12 14 90 57t109 78l12 -12q0 -10 6 -15q-63 -55 -125 -112q-6 -6 -64 -36t-63.5 -30t-43.5 -24.5t-44 -24.5t-8 -5t-6 -5t-10 -2t-10 -2l-17 -15q-4 4 -12 5q-18 0 -25 -19q2 -2 -92 -2q-6 0 -8 5t-6 5l-13 11q2 2 3 2q-2 2 -11 2l-16 -4q-2 18 -31 47q0 29 -18 49l8 10 q-2 16 -18 39q23 100 22 104q14 59 37 101l-16 12h-17q-2 0 -47 -17.5t-74 -17.5q-35 18 -34 41z" />
<glyph unicode="F" horiz-adv-x="505" d="M-12 49q0 6 13 39t13 59q0 12 -2 23q14 8 22.5 58.5t33.5 64.5l-11 4q25 31 25 80q0 2 -2 4l-10 -10q-14 10 -52 55v23q31 20 52 20q14 0 34 -8q10 25 53.5 162t43.5 151q0 4 -43 37q-16 33 -17 27q0 45 39 45q6 0 22 -11l17 -10q12 0 37 3t37 3q6 0 15 4.5t16 4.5 q2 0 7 -2.5t7 -2.5q6 0 8 5.5t6 5.5t13.5 -3t13.5 -3t6 5t8 5q4 0 12.5 -2t12.5 -2q20 0 62 10t63 10q6 0 17 -3t18 -3q16 0 51 5t53 5q12 0 154 6q6 -4 12 -14q-2 -2 -9.5 -9t-7.5 -11q-6 4 -45 4q-2 0 -2 -5.5t-4 -5.5t-4 5.5t-20 5.5q-8 0 -22.5 -7.5t-22.5 -7.5t-24.5 2 t-24.5 2q-12 0 -58 -12l-47 -12q-4 0 -12 2t-13 2l-10 -10v2q0 4 -10 4q-14 0 -4 -8l-10 8q-12 -14 -25 -14q-20 0 -49 -8.5t-37 -8.5q-4 0 -12 3t-13 3q-25 0 -60.5 -24.5t-31.5 -48.5q-4 -2 -4 -7l4 -8q-12 0 -20 -23.5t-4 -37.5q-12 0 -15 -15v-24q-16 -10 -37.5 -78 t-35.5 -90q6 -2 24 -2q14 0 40 5t40 5l10 10h70l10 11q39 0 37 8l-2 6q18 -6 62 -6q14 0 57 14h24l-2 -2q0 -6 17 -2q-8 -10 -21 -33q-16 0 -50 -10t-42 -10q-6 0 -5 2t-5 2q-4 0 -5 -2t-7.5 -2t-6.5 -2q2 -2 7 -6q-45 0 -70 -9l-10 -8q-23 0 -31 -16q-6 2 -14 2 q-23 0 -51 -14l-29 -13q-66 0 -76 -30q-10 -45 -23 -91q-23 -55 -34 -104q6 -4 16 -10q-12 -31 -12 -61q0 -11 2 -23q-4 -27 -21 -58q0 -6 -43 -6q-8 0 -17 14.5t-9 22.5z" />
<glyph unicode="G" horiz-adv-x="800" d="M-15 173q5 15 5 28.5t14 17.5l-8 4q47 115 221 285q137 127 277 256q6 4 47 27q33 16 39 34q31 16 143 72l10 -10q14 0 29 -4q2 2 4 2t8 -8q0 -10 10 -15v-26l-57 -68q-2 -4 -14 -10l-11 -8q-4 0 -12 -5.5t-12 -5.5q-6 0 -9 4.5t-7 4.5q-8 2 -9 0q2 -2 6 -5 q-16 16 -16 41q-12 -10 -8 -14h-4q-29 0 -53 -22h-1q-17 0 -65 -41q-49 -43 -55 -43t-7 -5.5t-6 -5.5q-45 -43 -102 -96q-27 -23 -55 -45q-35 -33 -41 -57l-10 10q-49 -70 -162 -197l10 -4q-6 -4 -20.5 -44t-14.5 -50q0 -43 29 -68q8 -2 47 -16q23 -8 55 -8q10 0 29.5 5 t30.5 5q6 0 8 -5t8 -5v8q2 2 4 2q35 0 119 53.5t100 85.5l4 -10q20 35 64 100q-14 6 -23 23l-10 -8q-84 -20 -92 -21q-8 0 -17.5 10.5t-11.5 12.5q12 12 13 33l2 8l4 6l-4 8q59 27 170 27q6 0 17 -3t17 -3q4 0 10.5 3t10.5 3l10 10q6 0 19.5 2t19.5 2q4 0 9 -2t7 -2 q4 0 9.5 5t9.5 5t13 -3t13 -3q6 0 19.5 7t19.5 7t17.5 -2t17.5 -2q8 0 22.5 5.5t20.5 5.5l10 10q14 2 41 4q6 6 31 6q4 -4 4 -12q0 -9 -4 -19l-14 4l-17 -14l-8 2q-6 -2 -12 -6q0 -2 2 -4q-2 4 -14 4t-11 -6l-10 -8h-18q-6 -2 -6 -11l-13 9q-29 -18 -43 -19q-4 0 -9 2t-7 2 q-6 0 -11.5 -5t-12.5 -5t-7 -2l6 -6q-2 -2 -4 -2q-4 0 -12 3t-12 3l-15 -14q-6 4 -18 4q-4 0 -4 -2q2 -2 4 -7q0 -2 -2 -2q-4 0 -10.5 3.5t-10.5 3.5q-16 0 -26 -70q-25 -16 -30 -44t-9 -52q-32 -88 -32 -113q0 -4 1 -6q-6 -33 -27 -92v-13q0 -10 -2 -28v-29l-53 -295h1 t-1 0l-2 -4l-6 -8l10 -4v-41q-10 -14 -12 -31l-10 4q-33 -14 -31 -14q-12 10 -31 35q2 90 2 108q0 16 -4 23q51 41 51 51q0 6 -6 14q18 4 19 25q0 10 -6.5 27.5t-6.5 25.5q0 4 9.5 13.5t5.5 11.5q14 104 55 307q-2 6 -8 14q-33 -31 -39 -30.5t-25.5 -21t-23.5 -24.5 q-49 -20 -121 -63q-2 0 -3 2t-7 2q-16 0 -62 -20q-8 -4 -59 -4q-4 0 -12 -11q-51 23 -103 43q-69 33 -69 97q0 6 5 21z" />
<glyph unicode="H" horiz-adv-x="735" d="M0 264q10 31 27 29l20 18q10 -4 39 -4q53 186 53 283q18 16 19 78q0 27 -4 65q6 14 43 31l10 -10q6 -2 18 -4l13 4q4 -10 10 -17q-4 -4 -15 -10l9 -4q-23 -102 -45 -207q-29 -123 -64 -201q8 -8 17 -8q6 0 6 2l-4 6l10 -8q31 10 78 10q8 0 20 5.5t21 5.5q2 0 7 -3t7 -3 t2 8q0 2 4 2q12 0 39 2t39 2q6 0 15 5t16 5q2 0 7 -2t7 -2q6 0 15.5 5t15.5 5q4 0 12 -3t12 -3q6 0 5 3t5.5 3t15.5 5t15 5h49v7q0 2 4 2q39 0 39 78q0 18 -6 71h6q4 -2 9 2l-9 4v13q24 34 24 80q0 7 -1 14q8 14 29.5 116.5t23.5 124.5q6 4 21 27q10 16 24 17 q6 0 21.5 -12.5t22.5 -12.5t7 -4q-2 -6 0 -6q-6 -39 -45 -129q-35 -82 -37 -131q-23 -35 -32 -154q-6 -29 -17 -82q-47 -225 -47 -291v-43l-10 6q-12 -80 -12 -120q0 -18 2 -29q-10 -2 -14.5 -23.5t-18.5 -21.5q-4 0 -6 -5t-19 -5l2 6l-6 4q-23 2 -22 33l51 133q-4 6 -4 12 q0 10 9 33.5t3 40.5q8 39 31 211l-8 8q-10 -8 -21 -8q-20 0 -58 -11.5t-50 -9.5l-17 -14q-4 4 -14 4l-12 -2l10 -12l-16 14l-5 -10q2 6 -12 6q-6 0 -20 -17q2 4 2 7q0 2 -2 4h-13l-16 -15q-6 2 -14 4q-16 0 -48 -12t-47 -12q-4 0 -8 3t-8 3q-12 0 -42 -12.5t-50 -12.5 q-12 -37 -14.5 -112.5t-14.5 -110.5q-4 -2 -12 -2h-12.5h-14.5l-10 12q0 6 -10 11q4 8 14 16q-4 2 -14 8v86q16 6 20 30t19 40l-2 2q-6 4 -15 4q-14 0 -6 -6q-6 6 -13 6t-9 5t-6 5l-13 -4q2 16 -10 41z" />
<glyph unicode="I" horiz-adv-x="839" d="M-23 145q0 82 66 191l10 -4q43 102 97 157q6 -4 22 -16q-29 -25 -76 -108q-41 -75 -41 -105q0 -6 2 -10q-8 -6 -14 -35t-16 -31l10 -4q-2 -2 -2 -4q0 -8 2 -26.5t2 -26.5q0 -29 28.5 -59.5t57.5 -30.5q4 0 9 -5t9 -5q8 0 22.5 5t22.5 5q2 0 7.5 -2t7.5 -2q6 0 13 5t13 5 q2 0 7.5 -3t7.5 -3q4 0 4 5t16 5q6 0 30.5 14.5t37.5 10.5l10 10q-2 4 10 4q4 0 12.5 3t15.5 3t51 28.5t54 41.5q-2 4 14.5 4t90.5 71q66 61 88 91q14 6 45 49t27 53q29 23 28 68q16 4 29.5 29.5t13.5 45.5q0 8 -6 13q4 4 13.5 37.5t9.5 42.5q0 27 -15.5 69.5t-15.5 65.5 l-6 -9q-35 57 -115 89q-68 26 -140 26h-5l-11 10l-10 -10q-4 10 -28 10q-27 0 -41 -10l4 6q-2 4 -9 4q-12 0 -60 -15t-54 -15q-20 -2 -13 -9q2 4 -12 5q-23 0 -61 -39q18 -20 22 -41q-2 0 -8 -5.5t-11 -5.5t-15.5 -2t-14.5 -2q-2 0 -2 4.5t-4 4.5q-6 0 -10 -5 q-2 14 -17.5 24.5t-29.5 18.5l10 11q-2 8 -8 2q27 20 73 67q10 4 23 7l-4 4q103 32 103 34h-1q2 0 7.5 -2t7.5 -2q16 0 47.5 7.5t48.5 7.5h98q10 0 31.5 -7.5t34.5 -7.5q2 0 7 2t7 2q6 0 17.5 -4t17.5 -4l24 -16q25 0 25 -8h6q20 0 66.5 -41t48.5 -62q51 -39 51 -135 q-8 -8 -4 -24q-10 -47 -10 -50l-9 -10v-10v-9q0 -24 -8 -57q-47 -96 -133 -227q-41 -41 -80 -82q-65 -65 -82 -65q-7 0 -25 -21.5t-24 -21.5t-20.5 -13.5t-21.5 -12.5t-7 -3l6 -6q0 4 -12 4q-6 0 -29.5 -19.5t-29.5 -19.5q-2 0 -7.5 2t-7.5 2q-16 0 -10 -4l-14 -16 q-8 -6 -27 -15l-10 4q-4 0 -45 -21.5t-54 -21.5h-34q-25 2 -37 2q-29 0 -49 -6l6 6q0 2 -25 2q-8 0 -37 21q-35 25 -37 26q-29 55 -29 67q0 2 1 3q-4 4 -12 16l8 5q-10 10 -11 34z" />
<glyph unicode="J" horiz-adv-x="784" d="M-596 -401q0 49 27.5 117.5t31.5 101.5q18 4 21 30l-4 9q43 31 119 147q31 47 108 100q88 61 115 93q41 45 57 45q12 0 17 -6l10 -5q-14 -12 -31 -43h-2q-16 0 -39 -24q-45 -33 -131 -107q-174 -180 -213 -329q-31 -47 -31 -119q0 -66 33 -129q37 -76 94 -78l25 -14 q8 0 23 -8l16 -7l10 4q4 0 25 -10l10 10q6 0 17.5 3.5t17.5 3.5t11 -5.5t9 -5.5t23.5 7.5t40.5 7.5l10 10q6 -2 16 -6q4 0 5 3t5.5 3t11.5 5t11 5l10 8q16 2 29 17q-2 4 12 4q33 0 33 16q0 4 16 4q31 0 148 123q80 86 137 158q25 29 70 88q37 61 116 180q-4 4 -4 10 q0 2 103 240l14 8l-8 4q12 14 194 535l9 -4q2 23 41 131l-15 8q-8 -10 -12 -10l-18 -15l4 9q-2 2 -9 2q-8 0 -26.5 -7.5t-28.5 -7.5t-34.5 -8t-37.5 -8q-6 2 -6 0q0 -4 6 -8q-6 4 -20 4q-16 0 -48 -7.5t-48 -7.5q-35 0 -35 -2l6 -6l-10 8q-37 0 -37 -6l2 -2l-10 8 q-8 -6 0 -14l-15 4l-12 -10q6 6 6 8q-4 2 -37 2l-10 -6q4 -2 6 4q0 2 -6 2q-16 0 -50 -8t-50 -8q-2 0 -2 8q0 2 -4 2t-4 -7t-7 -7q-4 0 -14 3t-16 3q-2 0 -6 -4l4 -6q-4 4 -19 4q-8 0 -35 -13q8 -12 52 -49q37 -31 43 -57q-27 2 -37 0l-13 10q-29 10 -79 43q-31 29 -82 58 l2 2q0 -2 -15 34q37 25 68 31h78q12 0 33.5 -2t31.5 -2q6 0 15.5 5t15.5 5q16 0 49 -3t49 -3q2 0 2 8q0 2 2 2q6 0 15.5 -5t15.5 -5q4 0 5 3t6.5 3t14.5 4.5t15 4.5q45 0 45 8q0 2 4 2q23 0 39 -4l10 10h45q4 0 31 9t29 9q57 0 127 25l12 10h4q36 0 51 33q10 31 23 61 q10 4 38 33t46 29q2 0 24.5 -13.5t28.5 -13.5q4 -8 4 -20q0 -35 -49 -99q-87 -21 -87 -67q0 -5 1 -10q-90 -162 -108 -254l-9 4q-14 -45 -29.5 -92.5t-39.5 -83.5l14 -13l-10 6q0 -4 -3 -9l-3 -5q2 -6 8 -10h-16v-6q-2 -2 -3 -2q0 -2 9 -11q-20 -20 -42 -94t-40 -94 q-12 -35 -49 -115q-37 -72 -48 -116q-33 -35 -33 -62q0 -8 3 -16q-27 -35 -70 -107l-4 -6l4 -8q-16 -2 -56 -70.5t-46 -68.5t-10.5 -17.5t-10.5 -17.5q-16 0 -8 -6q-2 0 -2 -4t4 -9q-6 -4 -28.5 -25.5t-25.5 -21.5t-136 -133h-9q-125 -74 -131 -86l-12 10q-8 -10 -11 -10 t-40 -14q-27 -12 -25 -19q-20 4 -32 4q-6 0 -17.5 -8t-17.5 -8h-164l-70 35q-6 -2 -14 -4q-14 0 -55 61.5t-47 65.5l10 10q-10 4 -19 31q-4 20 -8 39q4 6 4 14q0 4 -4 12t-4 13z" />
<glyph unicode="K" horiz-adv-x="655" d="M-27 72q18 59 66 170q0 23 16.5 68.5t16.5 49.5q0 6 -3 15.5t-3 15.5t5 19.5t5 21.5q25 25 50.5 100.5t25.5 114.5q0 8 7 24.5t7 24.5l-4 9q6 2 17 14t20 12q16 0 26.5 -17.5t16.5 -19.5q-16 -14 -17 -45q-25 -50 -25 -77q0 -5 1 -9l-11 4q-2 -29 -28 -82l14 -8 q14 6 37 25q25 12 74 30l10 11h14q178 109 269 170q4 2 45 43q30 30 46 30h1q37 0 37 -32q0 -6 -6.5 -20.5t-6.5 -18.5q-20 -16 -106 -70q-92 -57 -103 -57l-90 -56q-6 0 -39.5 -21.5t-33.5 -23.5q0 -10 -41 -10q2 0 -52 -37q-8 -4 -17 -6t-9 -14q-8 -4 -29 -10 q8 -10 13.5 -10.5t18.5 -21t22.5 -20.5t63.5 -53t63.5 -69.5t16.5 -16.5t37.5 -38t34.5 -50l5 8q4 -10 14 -20l-6 -6q78 -57 104 -117q18 -10 63.5 -72.5t50.5 -62.5t25.5 -19.5t28.5 -19.5v-8q0 -2 4 -2t12.5 -2.5t14.5 -2.5q8 -10 29 -20l10 4l10 -8l18 4l15 14l16 -4 q10 2 10 -22q1 -7 7 -11q-18 -12 -37 -24t-49 -12q-23 0 -59 22.5t-52 22.5q-2 4 -51 59t-49 72l-9 -8q-57 90 -188 233q-158 172 -221 182q2 2 2 4q0 16 -27 15q-2 8 -6 8t-14.5 -13.5t-10.5 -17.5q0 -6 7 -2q-2 -4 -23.5 -77.5t-21.5 -77.5q0 -12 6 -23q-16 -25 -39 -76 h-2t-7.5 -3t-11.5 -3q-2 0 -41 27z" />
<glyph unicode="L" horiz-adv-x="555" d="M-29 -8v22q45 74 45 115q12 33 29.5 65.5t37 101.5t32.5 97q20 61 69 178q39 78 54 138l8 12v4q0 4 8 14q-18 8 -18 31q0 8 20 24.5t31 16.5q20 0 31.5 -18.5t21.5 -34.5q-14 -4 -21 -10q0 -16 -26 -76q-20 -43 -20 -62q0 -3 1 -6l-10 4q-45 -98 -98 -254 q-78 -221 -90 -256l8 -8h8l10 10q20 0 66.5 3t69.5 3q6 0 18 7.5t23 8.5h92l10 9q20 0 80.5 14.5t87.5 14.5l10 10l16 -4q8 0 42 12t30 15q12 4 27 4q10 0 22 -2q0 -14 -22 -15q-8 0 -26.5 -17.5t-22.5 -17.5l-35 -20q-4 0 -12.5 3t-12.5 3q-6 0 -16 -12.5t-19 -12.5 q-14 0 -20 5l-8 -11q-14 0 -45 -7t-45 -7q-2 0 -19.5 -7t-29 -7t-13.5 -4q0 -2 2 -7l-10 11q-45 -16 -69.5 -16.5t-30.5 -8.5q-4 4 -25 4q-10 0 -37.5 -8t-29.5 -16q-4 4 -9 4q-12 0 -61 -33q-57 -37 -68 -41q-10 14 -41 35z" />
<glyph unicode="M" horiz-adv-x="821" d="M-37 33q20 72 57 217q2 8 23 55q16 35 14 53l-2 13q29 84 84 254q-4 14 -6 43q2 2 2 8q0 8 -2 16q20 20 21 68l10 -4q10 25 37 28q18 -16 61 -45v-16q0 -6 -7 -9t-9 -7v-9q-8 -39 -13 -118q-6 -14 -6 -37q0 -74 29 -291l4 -4q23 0 16 18q14 4 42 36t42 38l-8 4 q47 68 154 195q14 14 176 188q47 39 109 111q2 31 28 80q4 23 8 45q4 6 47 6q16 0 27.5 -16.5t11.5 -32.5q0 -27 -30 -66q-39 -49 -43 -61v-7q-8 -25 -17 -63q-14 -10 -31.5 -65.5t-17.5 -77.5q-4 -8 -8 -25l2 -4q-61 -158 -59 -205q-20 -47 -21 -96q-55 -150 -59 -297 q-8 -4 -13.5 -30.5t-13.5 -26.5q-18 0 -51 6v10q-2 8 -2 12q0 10 6 19l-12 12q37 66 37 137q14 23 26 69t23 64l-6 4q16 59 75 324q18 23 21.5 66t13.5 49l-8 14q-2 -6 -12.5 -12t-10.5 -8t3 -3q-8 -4 -31 -26.5t-27 -22.5q-14 0 -110.5 -124t-104.5 -124 q-98 -154 -172 -243q-14 12 -47 31q4 -2 4 12t-14 14q4 6 4 17q0 4 -14 24l10 10v13l-8 8q-2 6 -5.5 15t-3.5 16q2 6 0 6q-4 -2 -8 -6q0 23 -3 67.5t-3 67.5q-4 8 -14 0q12 20 0 57l10 2q-4 4 -8 4t-13 -4q0 -6 -3 -19.5t-3 -19.5q-14 -6 -22 -43q-2 -25 -6 -49 q-8 -45 -62 -190q6 -18 6 -31q0 -8 -2 -26.5t-2 -28.5q-14 -16 -14 -43q0 -18 -7 -19l-7 -2l-9 8l-10 -14q-18 10 -43 37z" />
<glyph unicode="N" horiz-adv-x="714" d="M-29 61v48q35 53 35 153q6 12 25 29l-11 8v16q25 59 58 164q37 119 37 162q0 4 -6 12v13q0 8 -4.5 18t-4.5 14q0 25 0 21q40 26 59 26h1q27 0 49 -30q2 -20 4 -62l8 9q8 0 8 -48q0 8 162 -467q18 -55 80 -157q14 2 29 178q12 25 10 53q12 20 21.5 67.5t21.5 61.5v8 q0 14 9 35t11 27q25 96 35 129q29 88 54 119l-11 4l8 30l13 7q-10 8 -10 14q0 8 20 25l-10 4q6 27 6 41q0 18 -12 24q6 43 26 70l-4 10q45 53 60 53q14 0 21 -11t11 -15l-4 -6q4 -10 4 -11q0 -4 -4 -6l15 -8q-31 -33 -57.5 -108.5t-47.5 -104.5l8 -4q-6 -10 -12 -29l4 -6 q-6 -23 -27 -61l7 -17l-4 -10q-10 -6 -11 -45q-6 -4 -20 -12l10 -4q-18 -57 -37 -113q-20 -68 -20 -117q0 -16 2 -33q-18 -10 -15 -16q0 -12 -7 -39t-7 -41v-280q-18 -18 -55 -52q6 6 6 9q0 2 -6 2q-14 0 -43 55t-41 61q2 8 10 25q-49 59 -80 158q-2 14 -18 34q-6 33 -25 95 q-4 -2 -6 2q2 4 8 10q-12 10 -33.5 60t-15.5 59q-12 16 -43 92q-27 68 -41 76l10 10q-2 4 -22 12q-25 -84 -76 -252q-16 -16 -27 -108q-8 -62 -8 -103v-16q-37 -37 -53 -37q2 0 -27 16z" />
<glyph unicode="O" horiz-adv-x="563" d="M-25 256q0 29 11.5 93.5t23.5 84.5l6 12l-6 5q20 18 39 61q10 20 21 41q4 2 14 8l-10 4q41 66 114 142q66 63 131 129q53 26 80 26h2q4 0 4.5 -5t4.5 -5q6 0 19 3t20 3q6 0 7 -7t3 -3l10 4q29 0 71 -83t42 -118v1l-4 -68q-4 -55 0 -62q-8 -8 -12.5 -28.5t-8.5 -26.5l8 -4 q-16 -55 -43 -168q-6 -37 -89 -147.5t-114 -110.5v-8q0 -2 -5 -2t-24.5 -7.5t-13.5 -11.5q2 4 -10 4q-14 0 -45 -12t-51 -12q-6 0 -18 14v6l-11 -10q-35 25 -100 80q-14 41 -57 96l10 10q-18 27 -19 72zM35 272q0 -37 10 -49q4 -47 23 -78q31 -47 32 -51q63 -37 62 -37h74 q4 0 7 5.5t7 5.5q49 0 131 90q73 80 73 126q0 6 -1 11q23 23 34 70q18 66 25 77q0 39 6 76q2 2 2 4q-2 4 -8 10q14 13 14 23q0 174 -77 248q-14 -6 -35 -17q-57 -8 -146 -81q-98 -84 -180 -232q4 -2 4 -4t-2 -6q-55 -106 -55 -191z" />
<glyph unicode="P" horiz-adv-x="520" d="M-39 12q0 6 4 28.5t4 39.5q0 10 7 28l6 17q0 6 -9 14q8 6 24.5 57.5t27.5 61.5q0 16 -5 49q6 16 23 45q45 137 45 205v6q25 20 29 86q20 43 45 146l-8 8q-8 -4 -2 -8h-9q-14 0 -28 -7q-4 8 -52 35q2 12 9 37q45 41 63 41q2 0 7 -2t8 -2q8 0 29.5 14.5t29.5 14.5l10 -4 q35 20 39 20q8 0 23.5 -3t21.5 -3q4 0 10 3t11 3l8 10q8 0 19 4.5t18 4.5q6 0 17 -2.5t17 -2.5q4 0 5 5q2 2 6 0q10 0 30.5 5t32.5 5q27 0 80 10t80 10q18 0 54 -7t54 -7q8 0 24.5 2t23.5 2l8 -10q6 2 14 6q4 0 4 -5t15.5 -5t34 -23t18.5 -37q0 -47 -224.5 -225t-248.5 -178 q-6 0 -35 -25q-14 -14 -57 -43q-48 -31 -58 -31t-127 -88q-45 -33 -55 -47q-14 -23 -14 -69q0 -8 -7.5 -25.5t-7.5 -25.5v-87l-16 -10q6 -4 6 -16q0 -23 -14.5 -44.5t-34.5 -21.5q-8 0 -20.5 16.5t-12.5 24.5zM113 401q0 -10 12 -22q31 20 94 61q2 8 14 9q91 65 114 65h1 q4 0 4 4q2 2 6 0q16 0 45 31t46 31q4 0 23.5 21.5t26.5 21.5t126.5 99t134 117.5l43.5 55.5l-2 8q-2 8 -10 8q-4 0 -10.5 -2t-10.5 -2t-9 5.5t-9 5.5q-12 0 -36 7t-34 7q-102 0 -135 -12h-10q-16 2 -48 -5.5t-47 -7.5q-2 0 -7 2t-7 2q-6 0 -20 -16l-11 6q-6 0 -15 -7t-13 -7 t-12.5 2t-12.5 2q-16 0 -16 -5t-4 -9l-11 10q-34 -25 -72 -25h-10v-18q18 0 25 -10v-9q0 -10 6 -10q-76 -109 -94 -217q-31 -51 -31 -86q0 -6 4 -12q0 -2 -4 -2q4 -8 0 -15q-2 -8 -13 -40.5t-11 -41.5z" />
<glyph unicode="Q" horiz-adv-x="716" d="M-39 240q0 6 6 24.5t6 24.5q-2 12 -2 20q0 12 5.5 23.5t5.5 42.5l8 12l-8 4v17q0 10 18 56t27 58q313 475 462 475q8 0 23.5 -3t24.5 -3l10 -10h20q4 0 5 -4t3 -6l11 10q39 -27 106 -78q10 -14 25 -47l6 -31q2 -14 18 -24v-195q-10 -8 -8 -39q-10 -29 -35 -118 q-8 -25 -61 -134q-45 -90 -131 -165q-37 -37 -119 -105q-16 -8 -49 -29q-2 -2 -5 -10t-11 -8q-6 0 -15 4q-8 -18 -8 -96l-12 2q-2 0 -2 -58q0 -6 -5.5 -7t-7.5 -3v-8q-10 -37 -14 -100q-6 -18 -20 -51h-33v6q0 8 -6 16q0 6 20 139q12 92 35 127q-4 6 -64 6q-14 0 -24 -2 q-47 27 -139 80l-36 70t-18 78q0 4 -6 17t-6 22zM20 266q0 -10 11.5 -65.5t9.5 -63.5l12 4q0 -4 6 -12l-8 -10q4 -2 45 -41q33 -31 45 -31q6 0 6 -2q0 -4 -4 -6q35 -12 82 -12q51 0 66 84q18 94 26 100q-8 2 -10 18q2 6 25 50q29 8 28 8q43 0 43 -54q0 -6 -11 -33.5 t-11 -33.5l-6 2q-6 -4 -10 -8v-8q0 -12 -7 -31q-8 -25 -8 -33q2 4 23 10q14 2 14 19l10 -4q4 25 15 24q4 0 48 39t48 43q49 74 96 150q61 100 74 157q4 47 16 138q-4 0 -4 4q0 8 6 21.5t6 19.5q0 68 -45 145q-51 88 -112 88h-21q-6 0 -10 -7t-8 -7t-8 2t-9 2q-6 0 -17 -5 t-17 -5q-10 -10 -90 -64q-61 -39 -70 -86q-74 -43 -164 -186q-84 -135 -100 -224q-10 -51 -11 -96z" />
<glyph unicode="R" horiz-adv-x="649" d="M-43 37v35l8 -6q2 41 53 217q33 115 66 229q6 16 35 63q-10 8 -10 13q0 20 22 39l19 51q10 31 10 51q8 4 12 43t12 43q-2 0 -4 2q-4 0 -13 -3t-13 -3q-6 2 -9 0l7 -6q-2 0 -5 2q-37 0 -45 -25l-10 11q-14 -10 -35 -31v2q0 2 -10 2q-8 2 -8 -2l6 -6q-27 10 -45 10l10 12 q-4 8 -8 2v2q0 6 -12 41q18 14 82.5 35t89.5 21q2 0 7 -2t7 -2q6 0 8 5t7.5 5t4.5 2t5 2q45 0 59 -4l12 6l23 -2l10 10q39 0 115 5t115 5q8 0 25.5 -5t25.5 -5t8 2l-6 6l14 -6h16l11 8l10 -10h27q6 0 7 -5t5 -5q6 0 17.5 3t17.5 3t13 -5t11 -5q14 0 21 4l10 -10h6 q33 2 47 -13q31 -27 33 -28q-4 -4 -14 -11l10 -10q-4 -4 -11.5 -20.5t-14.5 -16.5t-9 -5t-7 -5t-20 -31q-2 2 -4 2q-6 0 -18 -6t-13 -8t-6.5 -2t-13.5 -10t-15 -10t-17.5 -9.5t-17.5 -9.5t-42 -20.5t-43 -20.5q-16 0 -23 -18q0 4 -12 4q-6 0 -38.5 -22.5t-39 -22.5t-6.5 -5 t-4 -5q-2 0 -7 3t-7 3q-6 0 -38 -17.5t-42 -18.5t-4 -5l-17 -15q0 4 -10 4q-8 0 -44 -21.5t-39 -21.5t-25 -9l-23 -9v-14q6 -10 25 -29q41 -37 84 -72q55 -53 55 -88l8 6q18 -39 41 -79q2 -4 4 -15l-4 -6q23 -27 47 -78q31 -63 41 -80q18 -31 90 -114q78 -94 92 -95 q8 0 9.5 -6t3.5 -7t11 -6t9 -7q0 -4 -4 -6q18 -8 123 -72h10q6 0 4 -5t4 -5l17 6l14 -16q0 -4 21.5 -6.5t22.5 -7.5t5 -5l11 4q8 0 24.5 -5t24.5 -5q20 0 64 8t65 8q2 0 7 -3t7 -3q6 0 7 5t5 5h29q6 -4 16 -12v-16q-10 2 -18 2q-27 0 -29 -19q-4 0 -10 3.5t-10 3.5t-3 -3.5 t-5.5 -3.5t-23.5 -10t-28 -10q-20 0 -12 -8q6 0 -67 0q-2 0 -45 6q-35 6 -39 4q-16 29 -70 29q-6 0 -10 -4q-72 41 -164 108q-25 4 -156 168l4 4q-27 35 -84 103q2 10 -10 20l2 4q0 16 -20 25q-8 51 -71.5 154.5t-109.5 125.5l7 4q-16 18 -33 19q-6 0 -26.5 19.5t-28.5 19.5 q-2 0 -7.5 -2t-7.5 -2q-4 0 -4 2l2 2t2 4t-2 2l-16 -6q-18 -14 -19 -58q-37 -75 -37 -101q0 -7 3 -11q-4 -20 -17 -56q0 -12 17 -38l-5 2q-2 -4 -6 -11l-16 -78q-14 -51 -41 -51q-4 0 -4 8h-6q-2 0 -31 17zM150 528l12 -10q4 0 12 3t12 3l11 11q29 0 96 24l8 10 q6 0 20.5 8.5t24.5 6.5l10 10h15q14 6 30 18q4 0 22.5 7.5t27.5 9.5l14 14v2q0 2 9 2t46 21q45 23 49 24l11 10q39 23 120 60l19 20q2 10 15.5 11t17.5 13.5t18 18.5q-16 0 -48 8.5t-48 8.5q-10 0 -15 -6l-10 10q-29 -10 -41 -10q-4 0 -4 2q4 2 6 6q0 2 -4 2t-6 -5t-6 -5 q-6 0 -17.5 8t-17.5 8q-4 0 -14 -10l-10 10q-10 0 -11 4l-10 -10q-10 2 -27 2h-22q-16 -2 -25 -2q-18 0 -18 -4l2 -2h-41q-12 0 -23 -4l-10 10l-6 -4q-29 0 -58.5 -9.5t-52.5 -9.5q33 -4 41 -43q-45 -90 -86 -149l9 -8q-12 -18 -47 -95z" />
<glyph unicode="S" horiz-adv-x="606" d="M-59 76q0 8 6 26.5t6 28.5q0 12 -4 23q37 127 209 245v-28q-2 2 -4 2q-12 0 -78 -97q-66 -99 -66 -137q0 -6 -2 -16v-14q0 -61 80 -62q57 0 152 31q102 33 129 69q51 16 97 76t46 111q0 63 -39 98l10 10q-14 8 -39.5 40t-25.5 44l-8 -6q-6 37 -39 43q-47 41 -146 117 q-10 29 -30 35q0 8 -3.5 27.5t-3.5 27.5q0 6 8.5 27.5t8.5 31.5q162 123 217 123q20 0 57 -3t58 -3q14 -8 41 -26q2 -6 10 -19.5t8 -19.5q0 -8 -15.5 -31t-15.5 -33l-2 2q-6 0 -19.5 -8t-19.5 -8q-8 0 -24.5 13t-16.5 15l4 -2q8 0 17.5 14.5t13.5 16.5q-20 23 -31 27h-41 q-45 0 -55 -25q4 6 -10 6q-2 0 -2 -5t-4 -5t-5 2t-3 2q-8 0 -22.5 -9t-20 -9t-5.5 -3t-4 -3q-10 0 -30.5 -30t-20.5 -42q0 -23 67.5 -91.5t68.5 -69.5t6 -1q14 0 32.5 -24.5t22.5 -24.5q76 -96 84 -121q10 -8 21.5 -50t11.5 -60q0 -10 -7.5 -31t-7.5 -31q-28 -16 -28 -41 q0 -7 2 -14q-12 -2 -39 -31t-33 -29v-8q0 -2 -6 -2t-6 -2l4 -6q-10 -2 -14.5 -9t-22.5 -7q-6 0 -43 -26t-45 -34q2 -6 -7.5 -6t-14.5 -5t-9 -5l-10 6q-6 -2 -15 -14l-10 8q-45 -29 -49 -29t-12 2t-12 2q-16 0 -11 -4l-10 -10q-8 0 -24.5 -5t-24.5 -5q-4 0 -8 3t-9 3 q-4 0 -13 -5t-15 -5q-14 0 -41 9t-39 9l-14 -4q0 8 -11 10q-8 2 -16 0q-2 0 -2 2t3 7.5t3 11.5t-10 22.5t-10 24.5z" />
<glyph unicode="T" horiz-adv-x="403" d="M-57 836q0 14 15 35.5t28 21.5q16 0 53 -5t55 -5q6 0 15.5 5t15.5 5q2 0 7 -2t7 -2q4 0 9.5 5t11.5 5q35 0 35 8h4q6 0 3 -4t3 -4q-2 0 17.5 4t43.5 4q4 0 6 6.5t7 4.5q25 -4 24 -5q6 0 2 5.5t4 5.5q2 0 7.5 -3t7.5 -3q6 0 17 5t17 5q16 0 53.5 5t55.5 5q6 0 3 -5t3 -5 t2 5t2 5t19.5 -2t19.5 -2t11 4t10 4h94q12 0 20 -8q0 14 49 14q76 0 197 -18q-2 0 -11 -11.5t-16 -11.5q-4 0 -12 3t-12 3h-101q-6 0 -1.5 -5t-2.5 -5q-6 0 -3 5t-3 5q-4 0 -7 -5t-7 -5q-25 0 -71 -5t-77 -5q-4 0 -5 -5t-7 -5q-14 0 -24 10l-11 -10l-10 10l-10 -8l6 6 q-2 2 -8 2q-4 0 -12.5 -5t-14.5 -5q-2 0 -7 3t-7 3q-16 0 -25 -10l-10 10l-8 -10q-8 0 -12 -2l-11 6q-14 4 -24 4q-37 0 -56 -49q-25 -72 -28 -78q-2 -25 -19 -64l11 -2q-35 -82 -41 -157l-11 4q0 -29 -22 -78l10 -4q-27 -80 -57.5 -242t-53.5 -237q2 0 -36 0q-23 0 -23 47 q0 23 12 49l-4 10q16 16 38 87q19 60 19 84q0 4 -1 7q8 25 42.5 162t34.5 145q0 6 -6 11q16 16 31 88q12 61 14 98v8q0 2 6.5 2t13.5 16.5t13 20.5l-8 6q6 10 18 31q-2 2 -6 2q-12 0 -21.5 -5t-13.5 -5t-10 2t-10 2q-14 0 -14 -14q-4 4 -25 4q-10 0 -26.5 -7.5t-24.5 -7.5 q-2 0 -7.5 3t-7.5 3q-4 0 -15 -8t-28 -8l-10 -8q-23 0 -37 -21h-24q-12 14 -19 15q-6 0 -8 -2t-8 -2q-12 0 -12 41z" />
<glyph unicode="U" horiz-adv-x="708" d="M-41 70q0 78 145 561q4 0 4.5 5t6.5 5q4 25 18 47l-2 10q33 66 29 78q14 10 23.5 60.5t35.5 62.5q2 -2 31 -18q0 -2 4 0q10 0 33 -13q-10 -29 -80 -159q-55 -104 -178 -486h14q-29 -102 -29 -121q0 -10 4.5 -29.5t4.5 -29.5l12 -8q6 8 31 20v8q2 2 4 3q10 0 85.5 86 t84.5 106q29 31 198 234l13 -7q-4 -2 -5 13q0 14 96.5 136t96.5 126l-4 10l10 -4q2 0 0 29l10 -4q31 131 78 223q4 0 33 14l12 -10q23 -9 31 -21q-10 -35 -10 -92q-16 -10 -23.5 -30.5t-11.5 -26.5q-53 -68 -78 -164q-20 -86 -41 -174q-8 -49 -31 -129q-10 -23 -10 -21 q0 -4 6 -8q-35 -109 -35 -141q-21 -35 -21 -65q0 -17 7 -33q0 -10 -10 -36t-8 -42h4q-10 -14 -21 -29q-2 -2 -43 -2q-6 0 -22 39q10 23 21.5 49.5t11.5 44.5t-9 35q14 12 31 35q8 14 52 209.5t44 202t9.5 20.5t9.5 27q0 2 -4 6q-41 -43 -41 -51l4 -9q-8 0 -24.5 -17 t-18.5 -26q-57 -59 -92 -118q-14 -29 -82 -107q-55 -66 -72 -115q-68 -78 -135 -155q-100 -109 -156 -109q-16 0 -28.5 32t-18.5 36l10 14q-14 6 -14 23z" />
<glyph unicode="V" horiz-adv-x="430" d="M14 449v141q12 10 13 16q0 2 -7 8q4 6 12.5 72t8.5 82q0 8 -10.5 25.5t-10.5 23.5t5 10h-2q4 18 8 62q27 10 41 10q18 0 35.5 -13.5t17.5 -29.5q0 4 -8 -57q-20 -33 -37 -242q-4 -6 -4 -16.5t-3 -26.5t-3 -25q0 -10 6 -30.5t6 -32.5q0 -176 24 -256l5 8l6 -8 q102 156 297 471q70 129 153 277v14q0 43 17 43q31 0 43 -8q-1 -2 24 -29q-27 -41 -41 -96q-29 -27 -82 -111q-39 -61 -77 -123q-16 -33 -35 -63q-29 -53 -33 -53t-13.5 -18.5t-13.5 -22.5l6 -11q-29 -27 -83 -135q-33 -51 -97 -153l6 -11q-18 -6 -37.5 -61t-17.5 -78 q-18 -4 -57 -6q-29 31 -29 61q0 8 3 25.5t3 26.5q0 49 -18 104l10 8q-14 37 -14 150q0 20 -6 20q-2 0 -5 -2q6 8 7 23q0 20 -13 37z" />
<glyph unicode="W" horiz-adv-x="849" d="M-37 41q16 14 17 35l-1 -14q-1 0 -2 55v-2q2 0 23 94q16 88 25 168l10 -4l2 10q0 4 -4 12l-4 15q10 4 15 27.5t13 31.5l-8 4q18 92 64 275q6 39 10 75q12 51 47 51q12 0 31.5 -18t19.5 -29q0 -27 -35 -100q-57 -119 -108 -405l8 -9q6 10 6 27q14 18 41 55l-8 4q8 10 2 17 l10 -4q8 10 15 34v13q10 12 30 30q-2 4 -2 9q0 16 21 32q0 12 18.5 43t20.5 41q6 4 18 22.5t8 20.5q59 82 119 170q-6 12 -18 29q4 4 14 10l-12 11q8 12 20 12q2 0 6 12t19 12q23 0 49 -20q14 -12 26 -25q-8 -14 -12 -41q-6 -37 -6 -41q-4 -4 0 -18l-8 -10q4 -16 8 -19 q-17 -37 -17 -143q0 -47 3 -107q-10 -35 -11 -49q0 -31 3 -20q6 -27 6 -148q0 -129 49 -247l4 8l4 -13q16 33 8 43q12 4 17 9q33 86 106 250l19 24q12 16 10 29l-2 12q12 0 30 49q16 16 25 66l6 -10q55 123 182 356q-8 8 -20 12v23q37 45 78 114l53 31q33 0 33 -29 q0 -20 -13 -38q-25 -29 -24 -31q-47 -82 -139 -252l8 -10q-25 -14 -51 -66q-22 -42 -22 -65q0 -5 1 -9h-4q-14 0 -20 -24q-4 -16 -9 -35q-18 -41 -39 -82q-29 -57 -47 -68l11 -2q-113 -256 -113 -270q0 -6 4 -16q-27 -35 -51 -170q-2 2 -4 2t-13 -13q-8 10 -20 11 q-2 0 -7 -2t-7 -2q-4 0 -4 10q0 4 -7 4q-6 0 -6 -2t2 -4l2 8q-16 18 -20 18q4 4 4 11q0 14 -10 35q-12 29 -13 34v11q0 29 -18 73q2 39 -12 45q10 8 10 15q0 16 -20 47q10 8 10 18t-4 26.5t-4 22.5q-4 18 -15 52q6 10 6 30q0 39 -14 49l16 7v301q-4 4 -4 57q0 16 -12 25 q-6 -10 -61 -88q-41 -59 -43 -99q-12 4 -13 4q-8 0 -6 -39q-33 -23 -61 -104q-4 -2 -4 -6q2 -6 6 -8q-20 -14 -46 -70.5t-26 -85.5h-6q-8 -8 -8 -43q0 -6 -7.5 -8t-9.5 -8q-8 -18 -26 -93q-18 -14 -37 -92l-12 4l-15 -10q-14 14 -47 37zM72 285h8v12h-8v-12z" />
<glyph unicode="X" horiz-adv-x="610" d="M-131 -184q0 12 16 26q-6 8 -6 11q0 6 11.5 12t15.5 12q41 72 82 146q49 84 94 137q31 37 86 129q10 16 51 59q35 37 43 66l10 -4l2 -2q2 0 2 10q0 23 -38 45l4 4q-41 49 -129 143q-6 18 -66 56q10 12 10 24q0 10 -4 17q31 20 58 20q20 0 32 -16q10 -23 35 -62 q59 -96 127 -166l-2 -6q2 -2 8 -2t22.5 24.5t18.5 32.5q20 10 104.5 111.5t88.5 120.5q21 6 77 81q51 68 51 89q0 2 -1 4q8 10 14 20q0 2 29 3l12 10l-2 -6q0 -2 6 -4q4 0 5 3t5 3l25 -25l4 8q8 -8 18 -22q0 -12 -89 -87q-82 -69 -82 -88q0 -2 1 -3q-8 -14 -30 -27 q-27 -27 -33 -49q-31 -12 -104 -105q-94 -117 -105 -129q12 -37 123 -182q96 -125 145 -178l-18 -19l4 7q-2 4 -10 4t-64 55v2q0 2 -8 2l-44 59q-44 58 -136 166l-29 29q-16 -16 -47 -53q-43 -51 -123 -152q0 -8 -18.5 -30.5t-14.5 -36.5q-18 -4 -104 -146 q-76 -127 -94 -168h-6q-4 0 -12.5 -3t-12.5 -3q-8 0 -8 23z" />
<glyph unicode="Y" horiz-adv-x="792" d="M-412 -387q0 14 11 12l12 8q-4 10 -4 21q0 74 96 170q4 4 41 4l-10 -4q6 -4 18 -10q-27 -29 -67 -86q-10 -23 -23.5 -89.5t-13.5 -93.5q0 -6 4 -20v-21l6 -10q-2 -10 -2 -18q0 -39 46 -133.5t71 -94.5q10 0 32 -12q0 -2 6.5 -2t12.5 -10l4 10q-2 -4 10 -4t32.5 -7 t29.5 -7q12 0 18 12l16 6l15 -4l10 8l-2 -4l8 -4q31 0 213 174q2 -4 12 -6v2q0 18 29 51q23 25 43 47q90 127 105 207q43 61 82 172q53 154 65 178l-10 6q8 18 28 56l-8 4q12 45 35 69l-16 11q31 53 65 194q10 23 25 49q0 2 -8 2q-12 0 -52.5 -48t-44.5 -64q-27 -12 -47 -37 t-39 -49q2 -4 -8 -5l-10 -1l4 -6q-8 -6 -87 -72t-84 -66t-29.5 -26.5t-29.5 -26.5t-21.5 -10t-19.5 -10t-3 -5.5t-5.5 -5.5t-9.5 -5t-8 -5q-8 2 -6 0q0 -4 6 -8h-8t-17.5 -3t-17.5 -3q-4 0 -51 12l10 10q-8 6 -35 49v125q14 12 15 56q14 16 10 39q14 14 22 43q12 45 13 47v6 q0 16 34 74q4 35 37 108q27 55 54 111q2 -2 4 0l-6 12q0 12 16 12q10 20 29 49l-9 7q-27 -4 -77 -5q-6 0 -6.5 -3t-4.5 -3q-10 0 -28.5 -2t-26.5 -2q-8 12 -27 21q2 27 -10 37q0 16 35 16q20 0 61 -4t60 -4q6 0 17.5 4t17.5 4q4 0 8 -2t8 -2t6 5t23 5l16 12h21q12 -8 26 -14 q-244 -418 -244 -545q-30 -6 -30 -144v-9q0 -39 16 -62l6 10l4 -10q31 18 78 66q76 10 297 258l15 6q57 66 180 186l-10 15l18 6v6l-8 8q23 10 28 29q0 4 -2 4q31 47 33 82l-4 6l8 6q4 -2 11.5 16.5t15.5 24.5l-10 10q39 57 75 117q55 80 101 80q20 0 49 -17.5t29 -35.5 q0 -6 -5.5 -6t-7.5 -2q-2 -8 4 -25q-8 -14 -22 -45q-78 -94 -238 -281q-14 -16 -22 -43q-12 -35 -17 -45q-33 -63 -59 -170q-8 -20 -23 -41l7 -8q-35 -80 -80 -240l-11 5q-47 -184 -129 -357q-16 -35 -71 -129q-61 -106 -70 -106q-14 0 -16 -31q-27 -25 -53 -51 q-34 -36 -34 -52q0 -2 1 -4q-10 -2 -70.5 -44t-64.5 -52q-2 2 -7 2q-4 0 -41.5 -20.5t-42.5 -26.5q-8 2 -22 2h-23q-16 -2 -24 -2t-24.5 5t-26.5 5l-11 11q-33 8 -65.5 34.5t-63.5 51.5l9 16q-53 35 -78 154q4 4 4 14q0 12 -10 10q0 25 -5.5 78t-5.5 80zM811 762q6 -4 12 -6 l23 10l-6 14l8 -6q12 0 14 21q16 25 47 71q6 -2 6 11v12q-47 -35 -104 -127z" />
<glyph unicode="Z" horiz-adv-x="706" d="M-193 -135q4 4 21 49q12 29 41 33l10 10q41 14 105 86q47 53 92 104q63 63 188 195q139 172 422 512q-10 12 -12 12q-111 0 -119 -14l-10 10q-121 -20 -219 -20q-45 0 -43 -25l2 -10q-14 2 -42 15.5t-32 25.5q-8 4 -21 16q14 8 5 17q4 2 16 4t12 4v2q2 -2 4 0v8q2 2 4 2 q8 0 23.5 -2t21.5 -2t15.5 5t15.5 5t17.5 -3t17.5 -3q4 0 9 5t11 5h277q6 0 15.5 7.5t15.5 7.5t15 -5.5t15 -5.5l52 15l-11 4q2 0 84 61q53 41 85 41h3h7l10 -10q49 -12 65 -57q-10 -14 -20 -27q-14 -20 -20.5 -20t-7.5 -5.5t-5 -5.5q-6 2 -14 4l-15 -14q-6 2 -14 6 q-4 0 -49 -16.5t-51 -18.5q-4 4 -21 5q-6 0 -20.5 -17.5t-16.5 -28.5q-10 0 -29.5 -24.5t-25.5 -38.5q-33 -12 -35 -43l-12 2q-147 -180 -152 -197q-82 -94 -194 -223q-16 -18 -35 -35q-27 -29 -18 -34q-66 -37 -154 -166q-2 0 -49 -43q12 -16 12 -16.5t4 -0.5q12 0 35 5.5 t35 5.5q23 0 91.5 -10.5t92.5 -10.5l10 -10q74 -14 113 -15q14 0 45 -10t45 -10q2 0 7 2t8 2q8 0 20 -4t20 -4q25 0 75 -8t75 -8q14 0 44 3t44 3q6 0 11 -5.5t10 -5.5q4 0 11 2.5t11 2.5q2 0 4 -3q-2 -2 -27.5 -19t-29.5 -17t-6 5t-9 5q-4 0 -5 -3t-5 -3q-31 0 -94 -2 t-94 -2q-10 0 -21 10l-10 -10q-8 10 -20 10q-14 0 -19 -6l-10 10q-12 0 -35 -4q2 2 2 4q0 4 -2 6q-23 0 -53 7l-31 7q-6 0 -17.5 -2t-17.5 -4q-35 16 -39 17q-4 0 -10 -3t-10 -3q-82 14 -104 20l-13 -8l6 6q-2 2 -8 2q-8 0 -16 -10q-6 10 -49 10q-16 0 -39 -5t-21 -5 q-2 0 -7 3t-7 3q-8 0 -37 -14.5t-29 -17.5t-4 -3q-6 0 -6 2t-4 2q-12 0 -41 -33.5t-37 -50.5q-12 -2 -37 -6q-12 12 -37 33zM29 12h8v15h-8v-15zM881 954h18v9h-18v-9z" />
<glyph unicode="\" horiz-adv-x="505" d="M39 764q12 -12 4 -35q23 -4 34 -29.5t19 -50.5q25 -31 68 -100l8 -8l-10 -11q29 -20 47 -96l10 6q45 -78 113 -243q14 -4 16 -17.5t4 -25.5q31 -102 82 -187q2 2 4 2q4 0 11 -8l22 33q-10 29 -68.5 169t-68.5 159q-41 63 -117 219q-88 184 -84 221l-16 4q-2 4 -2 6 q0 6 8 12q-10 10 -33 23q-27 -14 -31 -16q-20 -13 -20 -27z" />
<glyph unicode="_" horiz-adv-x="542" d="M-37 -61q0 4 6 9t6 7t-4 4q43 0 129 3t129 3q6 0 15.5 -4t13.5 -4h4l-2 6q0 2 4 2q35 0 106.5 -2t106.5 -2h4l-2 -8q0 -2 4 -2t5 3t6 3q39 0 38.5 2t4 2t8.5 2h8q13 0 27 -8q0 -4 -4.5 -11t-2.5 -12q-4 4 -16 5q-6 0 -9 -5.5t-9.5 -5.5t-6.5 -2q2 -2 7 -6l-15 6h-16 l-10 -8q0 6 -11 6q-12 0 -4 -8q-8 8 -12 8q-10 0 -8 -2l4 -4q-10 2 -29 6l-10 -10q-23 0 -72 2t-71 2q-6 0 -14.5 -3t-12.5 -3q-8 0 -22.5 2t-20.5 2q-14 0 -18 -8q2 2 2 4q-2 2 -13 2q-18 0 -57 -4t-59 -4q-8 8 -23 8q-31 0 -43 -10l4 8q-2 2 -8 2q-12 0 -6 -6 q-12 12 -27 31h-2q-2 0 -2 2z" />
<glyph unicode="a" horiz-adv-x="436" d="M2 63q45 98 174 240q111 123 215 205q12 14 25.5 28.5t29.5 14.5q12 0 27 -8q16 -31 16 -45q0 -6 -14 -19.5t-14 -19.5q0 -2 4 -6q-10 -12 -52 -101.5t-44 -99.5q-10 -10 -4 -16h-3q-2 0 -6 -6.5t-6 -6.5l10 -14q-45 -94 -71 -256q6 0 -37 0q-8 0 -19.5 15.5t-7.5 21.5 q-2 -2 -6 -2q-2 0 -4 6q0 14 16 20l-10 4q28 15 28 55q0 7 -1 15q22 16 22 75v15l15 12q0 2 -2 3q-2 0 -53.5 -53.5t-57.5 -53.5t-33.5 -37t-34.5 -37q-12 0 -35.5 -5t-35.5 -5q-2 2 -31 61zM86 104l12 -12q10 10 17 4l-2 6l6 4q23 0 41 50q4 -4 10 -4l-4 8l4 6 q33 31 85 95.5t81 90.5q-10 8 -10 10t2 3q6 -4 10 -5q0 17 12 29q-2 0 -39 -24q-2 -4 -4 -11v-10q-39 -31 -108 -102q-14 -6 -27 -19l6 -8q-18 -2 -92 -111z" />
<glyph unicode="b" horiz-adv-x="366" d="M-23 -6q0 41 29 95t64 54q2 0 18 -22q-27 -16 -35 -49t-16 -64q-2 2 22 2q2 0 2 -10h5q2 0 2 5t16 5q27 0 117 88q76 76 110 123l-10 4q12 8 25.5 39t13.5 47t-16.5 36t-34.5 20q-14 0 -66.5 -31t-52.5 -37t-7 -6t-26.5 -28.5t-19.5 -39.5l-11 -12q-6 0 -16 -2t-14 -2 q-2 0 -2 8q0 2 -4 2q-6 -2 -7 -4l3 -6q-10 37 -33 41q211 432 211 473q0 6 -6 14q12 12 26 25q8 8 37 8q25 0 21 -16q6 -8 6 -23q0 -31 -37 -96q-49 -86 -53 -96q-23 -23 -49.5 -88.5t-36.5 -75.5q0 -2 8 -2q4 0 43 25.5t49 27.5l10 10q6 0 13.5 -4t13.5 -4q2 0 7 2t7 2 q47 0 62 -24q32 -50 36 -54q-6 -8 -8 -49t-14 -55q-4 -16 -14 -47q-8 -18 -49.5 -73.5t-50.5 -55.5t-9 -2l6 -6q-49 -16 -117 -91q-8 0 -25.5 -12t-25.5 -12v-10h-4q-2 0 -7 2t-7 2q-6 0 -13.5 -10.5t-11.5 -10.5l-16 10q-14 6 -27 -4q6 6 6 9q0 2 -8 2t-29 53z" />
<glyph unicode="c" horiz-adv-x="354" d="M4 82v31q0 25 11.5 49t11.5 28q0 8 -7 15q10 4 21.5 28.5t18 28.5t20.5 4q-4 0 -4 10q0 4 49 58.5t55 68.5q35 33 72 66q45 41 80 51l10 -10q12 -2 29.5 -21.5t17.5 -31.5q0 -8 -11 -18.5t-13 -16.5q-14 -6 -60 -86q-8 0 -22 -33q-18 -39 -21 -41q-6 -2 -16 0q-6 4 -17 4 v4q2 16 -10 29q12 8 23.5 17.5t11.5 27.5q0 31 -12 31q-4 0 -28 -21.5t-30 -25.5l11 -4q-18 -33 -29.5 -33t-11.5 -2l6 -6q-25 -8 -59.5 -74t-34.5 -94q0 -4 11 -22.5t7 -35.5q8 0 26.5 -2t26.5 -2q12 0 67.5 34t59.5 44q14 6 29 16l-4 13l12 -2q35 55 53 63q2 2 6 2 q2 0 11 -2h12v-18q-27 -29 -14 -39q-4 -2 -14.5 -17.5t-18.5 -15.5q-8 2 -8 0l6 -6q-10 -6 -109 -76q-84 -61 -102 -61q-49 0 -117 61q0 10 -2 33z" />
<glyph unicode="d" horiz-adv-x="479" d="M-23 25q8 33 15 96l12 -2q4 0 4 16q0 6 33 36t37 34l-10 4q104 123 264 276l10 11q4 0 9 5t9.5 5t4.5 8q0 2 4 2t11 -2t11 -2q2 -2 2 0t-2 4t-2 4t4 0q35 0 35 74q58 101 58 129q0 4 -1 6l11 -4q16 35 32 68q27 47 54 47q22 0 47 -37q-18 -27 -39 -82q-14 -10 -47 -90 q-16 -2 -45 -62.5t-29 -81.5l-10 5q-72 -207 -72 -242q-18 -12 -18 -47q0 -12 6 -17q-6 -4 -19 -14l9 -6q-14 -16 -17 -84q-2 -45 -4 -92l-2 2q-4 0 -11 -4t-14 -4q-2 0 -21.5 9t-23.5 3l9 10l-15 8v64q14 23 41 69q0 10 4 35t4 35l-16 16q-8 -20 -8 -28q-20 -14 -47 -45 q-37 -45 -41 -49q-2 -16 -11.5 -16.5t-11.5 -2.5l6 -6q-6 -2 -66.5 -52t-82.5 -50q-8 0 -12 6l-11 -10q-4 6 -30 16l8 10q-8 8 -8 12t4 5zM47 68q0 -10 8 -21q4 6 11 2q51 49 120 117q18 27 47 51l39 51q12 -2 12.5 18.5t20.5 22.5q-2 2 -2 6q0 12 29 39q4 19 18 52 q-18 -6 -28 -11q8 -8 8 -10t-2 -2q-6 4 -17 8q-76 -78 -151 -158q-113 -121 -113 -165z" />
<glyph unicode="e" horiz-adv-x="380" d="M0 176q8 8 20 41q10 4 19 45q12 6 14 17q6 4 47 59q6 6 0 8q16 8 30.5 28.5t29.5 39.5l-2 2q0 8 10 8q4 0 55 54t68 54q76 0 102 -47q-2 -53 -55 -112q-45 -43 -92 -88q-2 -6 -15 -6q-4 0 -14 -12.5t-17 -12.5t-7 -2l2 -6q-49 -8 -76 -62q-2 2 -6 2q-16 0 -15 -2 q-4 -2 -4 -6q2 -4 6 -8l-10 6q-14 -57 -14 -59q0 -16 20.5 -44t36.5 -28q6 0 5 -2t5 -2q10 0 34 2t36 2q-2 0 11.5 7t27.5 7q8 0 30.5 21.5t36.5 23.5q2 2 3 5q-2 2 -9 4q4 2 15.5 14t17.5 12q8 0 6 -2q-4 -6 -2 -8l10 25q6 0 21.5 9t28.5 7h2q4 0 16 -12q-35 -47 -44 -47 t-10 -5.5t-6.5 -5.5t-5.5 -5t-47 -40t-57 -39l-10 -10q-16 0 -47 -15.5t-54 -15.5q-8 0 -33.5 14.5t-43.5 12.5q4 2 8 6q-2 2 -7 2t-23.5 23.5t-31.5 23.5q2 6 2 15q0 31 -6 51q8 4 8 20q0 27 -20 33zM135 297l12 -8q-2 4 -2 6q0 4 7 4l16 -4q18 16 59 49l6 -6q8 10 9 10 q18 0 86 119l-11 -4q-4 4 -16 4q-16 0 -84 -74q-41 -49 -82 -96z" />
<glyph unicode="f" horiz-adv-x="376" d="M-162 -567q49 86 49 118q72 162 97 295l14 7q2 0 2 2q0 6 -8 20q14 4 24.5 39t6.5 51q25 20 34 68q6 37 15 76q20 20 34 88q8 6 12.5 27.5t12.5 27.5q-12 2 -59 59q6 14 16 43q10 0 33.5 -3t36.5 -3q23 63 51 193q23 29 76 213q47 166 86 182q10 10 26 10t25 -28 q6 -18 12 -39q-37 -61 -74 -123q-49 -84 -55 -125q-14 -45 -53 -131v-4q-12 -35 -16 -74l-21 -21l4 -43l10 7q18 0 38 5l20 5q12 0 33.5 -3t31.5 -3v8q2 2 4 2t2 -5t4 -5v8q0 2 5 2q6 0 15 -5t15 -5v8q0 2 4 2q2 0 2 -5t5 -5q4 0 5 3t5 3q12 0 36.5 2t37.5 2q16 0 16 -25 q-16 -6 -16 -20l-11 10q-18 -8 -59 -8q-8 0 -22.5 -6t-22.5 -6q-4 0 -12.5 3t-12.5 3q-14 0 -14 -15q-8 4 -41 4q-4 0 -13.5 -7t-15.5 -7q-2 0 -7 2t-9 2q-10 0 -33 -12q-2 -2 -6 -2q-20 0 -39.5 -39t-15.5 -59q-21 -23 -21 -45q0 -9 4 -19q-25 -16 -24 -80l-17 -28 q0 -39 -39 -80l15 -11q-27 -20 -54.5 -122.5t-33.5 -106.5q4 -2 14 -10q-14 -4 -25 -49q-10 -12 -10 -31q0 -25 10 -33q-8 -6 -20 -16l10 -8q-35 -68 -35 -101q-4 -25 -26 -53q-25 -2 -35 -25q-8 18 -33 27v27z" />
<glyph unicode="g" horiz-adv-x="370" d="M-422 -516v12q0 8 10 47q33 119 66 178q47 84 129 138q8 -6 22 -17q-39 -45 -77 -90q-45 -57 -52 -104q-8 -8 -26.5 -74t-18.5 -80q0 -35 31 -98q33 -70 62 -70q100 0 217 115q4 2 4 6l-4 8q10 10 22 10q8 12 10 31q0 4 10.5 4t32.5 47q18 41 23 60q12 14 27.5 60 t31.5 61l-8 4q14 18 30.5 64t31.5 67q8 41 14 84q14 61 27 73l-9 5v18l11 -6q-2 4 -2 10t3 17.5t3 15.5q6 14 20 20q-6 6 -18 6q-6 0 -14.5 -17t-18.5 -17t-66 -70q-4 2 -8 2q-14 0 -37 -10h-14q-6 18 -29 20l2 4q0 14 -12 45q16 31 33 89q0 -2 2 -2l14 10l-8 4 q31 49 92 145q29 33 82 94q41 57 92 107q63 14 68 14q10 0 33.5 -21.5t23.5 -29.5q0 -18 -29.5 -56t-33.5 -59q-8 -10 -21 -41q-6 -16 -22 -30q-27 -74 -86 -217l10 -4q-18 -23 -18 -46q0 -8 2 -16l-11 4q-4 -8 -12 -65q-10 -14 -64.5 -166t-56.5 -174q-14 -16 -8 -29 q-16 -27 -39 -53q-51 -63 -49 -99h-4q-12 0 -19.5 -14t-5.5 -24q-16 -2 -37.5 -29t-23.5 -29l-41 -28q-8 0 -49 -20.5t-49 -20.5q-6 0 -10.5 5t-10.5 5q-4 0 -14 -5t-15 -5q-8 0 -46 33.5t-44 27.5q-18 39 -35 76q-22 49 -22 78q0 4 6 12zM80 96q2 -8 4 -22q0 14 12 14 q14 0 10 -6q35 45 43.5 45t14.5 17.5t12 17.5t16.5 13t14.5 13q-2 23 61 111q13 45 25 53q0 16 -19 33q-23 -25 -61 -82q-39 -29 -133 -207z" />
<glyph unicode="h" horiz-adv-x="405" d="M-20 20q18 47 83 275q14 10 58.5 129t42.5 135q18 8 61 123q0 2 6 57q4 31 31 45q18 -8 47 -32v-45q-47 -68 -65 -152l-11 6q0 -6 -63 -155q-45 -111 -47 -152q6 6 10 4q-2 0 -4 18l10 -8q10 8 23 21q-2 4 -6 6q33 37 100 106q20 6 59 21q2 -6 11.5 -12.5t9.5 -20.5 q0 -16 -7 -49t-7 -51l-15 -15q-1 -18 -23 -68q-18 -39 -17 -66q0 -7 1 -13q-10 -29 -10 -53q0 -8 8 -35q6 -18 0 -33q4 -12 20.5 -29.5t24.5 -17.5t8 -4q0 -2 5 0q6 0 15 -3t13 -3l10 10q8 2 25 4l21 21q10 0 24 14q-2 6 14.5 6t75.5 59q9 -6 23 -18l-72 -72 q-55 -53 -72 -53q-29 -18 -36 -31q-10 0 -30 -2t-30 -2q-8 0 -24 15q0 4 -17 4q-4 0 -19.5 7t-21.5 9q-31 125 -30 121q0 16 8 46t8 46t-6 33l10 12v2q0 4 10 10v74l-8 8q-68 -76 -174 -282q-4 4 -31 4q-6 0 -17 12t-13 14z" />
<glyph unicode="i" horiz-adv-x="282" d="M12 8q14 68 64 203q12 18 30 61v2q0 8 22 52.5t17 56.5q20 8 21 18q0 23 -21 39q23 16 62 54q8 0 20.5 -6.5t15.5 -29t11 -20.5q-49 -92 -96 -184q-74 -137 -74 -180v-56q-8 -10 -4 -16q-14 2 -31 -16q-12 8 -37 22zM270 719q10 14 22.5 28.5t29.5 14.5q16 0 47 -53 q-8 -12 -21 -37q10 0 -51 0q-6 0 -15.5 22.5t-11.5 24.5z" />
<glyph unicode="j" horiz-adv-x="270" d="M-528 -403q0 4 33.5 106t37.5 115q23 25 47 76l23 6l16 -19q-74 -119 -88 -223q-20 -33 -20 -66q0 -12 8 -40.5t8 -43.5q0 -20 -6 -34q8 -4 47 -58q33 -45 49 -45q8 0 26.5 5.5t27.5 5.5q16 20 36 20q6 0 10.5 11.5t6.5 13.5q66 61 186 198q8 23 43 58l-10 4 q59 111 131 311q82 227 82 317v74l14 23q-4 8 -4 16q0 6 5 17.5t5 19.5h21q14 2 20 2q8 0 23 -2l12 -21q-2 -10 -13 -51t-11 -59q0 -8 4 -17q-4 -10 -25 -32q2 2 6 4q6 0 2 -31q-16 -14 -28 -65q-6 -37 -15 -74q-14 -35 -41 -105l-94 -237q0 -12 -18.5 -40t-24.5 -56 q-49 -51 -70 -115q-70 -84 -153 -170q-59 -63 -80 -64q-6 0 -14.5 -10t-14.5 -10q-2 0 -7 3t-7 3q-14 0 -20 -10l-11 10q-12 -6 -39 -6q-6 0 -34.5 32.5t-36.5 39.5q-20 45 -41 90q-4 14 -4 123zM272 719q0 10 9.5 27.5t17.5 17.5h31q23 0 32 -19.5t15 -37.5q-2 -4 -58 -37 q-4 10 -25.5 21t-21.5 28z" />
<glyph unicode="k" horiz-adv-x="348" d="M-20 41q0 12 25.5 74.5t33.5 68.5l-8 4q12 8 12 54q12 8 33 92q25 98 26 106q27 63 48 158q18 80 34 160h17l20 2q12 -12 37 -33q-25 -41 -49 -139q-23 -63 -66 -189v-8q0 -16 -12 -49t-10 -53q-20 -11 -20 -47q0 -9 1 -19q0 2 -4 2t-8 -6l2 -2h8q178 160 236 160 q6 0 13 -10.5t11 -12.5l-8 4l6 -30q-96 -90 -174 -213q-25 -39 -41 -88q-16 -61 -28 -86q68 -125 110 -125q10 0 28.5 2t27.5 2q2 0 2 -6.5t4 -3.5l4 4q20 0 45.5 13t34.5 13q4 0 12 -3t12 -3q-2 0 35 21l16 -13q-6 -8 -63 -43t-61 -35h-99q-6 0 -27.5 12.5t-29.5 12.5 l-10 -4q-16 0 -52 59q-23 37 -43 76v103l11 -9q8 10 4 13q10 10 24.5 47t10.5 47q14 2 18 13t8 24q-14 -27 -14 -25l-6 10q-27 -33 -74 -135q-2 2 -4 2t-9 -3t-12 -3q-10 0 -24 13.5t-14 23.5z" />
<glyph unicode="l" horiz-adv-x="204" d="M-16 -12q0 27 14 65q18 49 20 64l11 -6q0 29 16 70.5t16 49.5q10 35 37 88q0 18 14.5 48t14.5 57q12 6 20 12q-4 2 -4 8q0 16 11.5 44t11.5 42q33 66 51 121q10 47 37 140q10 10 12 22l-4 10v19q12 2 19 8l-11 4q23 23 47 23h5q0 -2 -2.5 -4.5t-2.5 -4.5t2 -2 q35 1 35 -28q0 -12 -19.5 -43t-29.5 -39l10 -4q-72 -147 -129 -340q-14 -18 -32 -74v-8q0 -12 -8.5 -33t-8.5 -25q-20 -61 -65 -184l14 -12v-23l-31 -51q-12 -25 -55 -25q-6 0 -10 6.5t-6 4.5z" />
<glyph unicode="m" horiz-adv-x="585" d="M-20 14q0 8 6 11.5t6 5.5q16 53 35 104q29 86 43 94l-11 11q14 25 37 87t25 87q23 16 47 16q12 0 20.5 -13.5t16.5 -23.5q-29 -43 -62 -141q33 27 86 72q2 8 0 20q25 12 25 33.5t27 23.5l10 -6q6 0 13 5.5t11 5.5q8 0 7 -5q-2 -4 0 -6l10 11q14 -16 26 -21 q-10 -49 -30 -143q-16 -8 -6 -19q-2 2 -5 2q-2 -2 -8 -10l13 -14q2 2 2 6t-5 8q2 2 132 133q113 117 118 117q16 -4 35 -10q4 0 8 4l-4 4q2 -8 13 -8l10 -11v-43q-43 -88 -43 -94q-10 -4 -13.5 -9t-39.5 -95q-29 -70 -29 -103q0 -10 2 -20q-8 -12 -6 -39q-4 -12 -10.5 -25.5 t-20.5 -13.5q-2 0 -2 -4t-4 -4t-9 4t-10.5 4t-6.5 3t-5 3t-13 8.5t-9 12.5q0 55 49 153.5t53 149.5q-35 -14 -111 -129q0 -6 -12 -6q-78 -90 -78 -113q-18 -2 -40.5 -31.5t-30.5 -29.5q-25 0 -34 10t-20 20q45 127 76 191l-14 6q0 10 18 18l-8 8q0 -8 -13.5 -10t-13.5 -10 q-8 -6 0 -12q-33 -20 -97 -113.5t-66 -126.5q-18 -6 -21 -24q-6 -2 -15 -7.5t-16 -5.5q-8 0 -23 19.5t-15 27.5zM121 215l14 6l-2 6l-12 -6v-6zM129 236l4 -7l19 19l-7 4z" />
<glyph unicode="n" horiz-adv-x="372" d="M-43 49q18 16 47 53q-2 23 21 54l-2 8q0 18 17 56t17 61q0 10 -2 22q-2 10 2 31q23 39 58 43q37 -23 37 -47q0 4 -60 -144l6 -8q80 76 236 232v4q0 10 -4 0q6 2 13 14t15 12q6 0 17.5 -2t17.5 -2q31 -33 31 -37q0 6 -21 -41q-4 -43 -84 -223q-64 -146 -64 -188 q0 -6 1 -10q-16 -16 -33 -17q-6 0 -18 5t-19 5q2 8 15 23q-2 6 -8 2q45 111 122 336h2q2 0 2 8q2 8 0 8l-6 -6h-6q-4 -2 -8 -6q-10 -14 -33.5 -33.5t-21.5 -19.5q0 -2 2 -9q-33 -6 -62 -61q-16 0 -36.5 -26.5t-27.5 -26.5t-48 -59.5t-47 -65.5h-21q-12 0 -21.5 25.5 t-25.5 29.5z" />
<glyph unicode="o" horiz-adv-x="339" d="M-6 80l10 6q0 8 2 25.5t2 27.5q0 27 25 62q37 53 39 57q4 10 0 14q66 61 80 109q8 6 49 53q29 33 57 39l10 10h21q18 0 39.5 -41.5t21.5 -64.5q0 -92 -46 -173t-93 -157q-14 -2 -36.5 -23.5t-26 -21.5t-4.5 -3t-5 -3t-13 -4t-15 -4q-18 0 -48 -11q-2 2 -9 6.5t-5 6.5 q-18 8 -33 41q-23 49 -22 49zM63 98q0 -6 2.5 -18t5.5 -15.5t15 -8.5t18 -5t7.5 2t3.5 4l10 4q4 0 4 5.5t7 5.5t43 34.5t44 47.5q12 20 70 159q-4 10 -12 25q6 4 14 8q-2 4 -14 12q6 3 16 9q-6 6 -10 16v-2q0 2 -2 4l-6 4l-21 -14l-10 4q-43 -51 -82 -82l8 -6 q-31 -16 -71 -87t-40 -106z" />
<glyph unicode="p" horiz-adv-x="391" d="M-162 -317q0 25 45 69l-8 4q23 37 49 107q31 80 45 108q0 25 60 224q18 12 37 79q14 53 18 91l6 -5q4 31 19 89h4q4 0 4 45q18 14 35.5 25t42.5 11q18 -20 79 -36q53 -16 64 -45q20 -16 57 -54l-4 -2q29 -27 29 -82q0 -18 10 -32q-14 -43 -131 -211q-18 0 -29 -25 q-20 -2 -37.5 -23.5t-33.5 -21.5q-6 0 -22.5 -12.5t-23 -12.5t-23.5 -10t-24.5 -10t-7.5 -2l4 -6q-14 4 -63 35q2 10 4 30l-10 8q-2 -4 -11.5 -37.5t-9.5 -35.5q-23 -53 -45 -107q-24 -57 -24 -102v-10q-16 -12 -52 -91q-2 2 -26 3l6 6q0 2 -9 2t-18 6q0 4 -3 14t-3 17z M41 37l4 -14q6 20 23 26q-4 6 -5 12q0 4 3 7l6 -9q-4 6 -4 13q2 2 5 2t15 10q25 53 41 53l10 4q2 0 15 17l10 -11q23 0 29 -8q-23 -14 -35 -57q-8 -4 -31 -14q4 -6 4 -13q0 -2 -2 -2q-4 4 -10 4q2 -4 2 -8q0 -12 -8 -18l14 -8l-4 6l6 4q6 0 21 14q-2 4 -3 -8h5q23 10 49 24 q10 20 51 56q51 43 59 51l-6 10q55 62 55 113q0 53 -53 100t-102 47q-20 0 -23 -14q2 -4 2 -10q0 -37 -32 -68l10 -4q-29 -33 -64 -142.5t-51 -125.5q2 -6 6 -6q-12 -16 -12 -33z" />
<glyph unicode="q" horiz-adv-x="452" d="M-25 61q0 20 36 78t55 68l-11 4q74 80 148 178l-8 6q10 2 22 2q4 0 6 5.5t8 5.5q29 23 82 69q8 6 0 15q8 0 21.5 5t21.5 5q2 0 7.5 -2t7.5 -2q6 0 19 5t20 5q-2 0 41 -16l12 -11v-16q-25 -43 -60 -121q-12 -12 -28 -57q-14 -6 -25.5 -35t-19.5 -29q-35 -53 -35 -94 q0 -10 2 -18l-10 8q-12 -20 -13 -62q-23 -12 -36 -67q-8 -41 -19 -82q-12 -23 -31 -70q6 -6 11 -6q8 -2 8 0l-6 6l10 -6q14 16 39 53q35 31 170 154q18 0 37 -27q-12 -6 -4 -26q-29 -8 -96.5 -77t-65.5 -69q-14 0 -12 -33q-23 -18 -60 -59q-94 -137 -115 -313 q-24 -14 -24 -68v-12q-20 0 -21 -21q2 4 -12 4q-12 0 -8 -4q2 -2 4 -2l-12 6q-6 0 -18.5 13.5t-12.5 21.5q0 10 14.5 49t20.5 43q-4 16 -12 15q2 14 12 14t14 37q18 35 35 150q8 2 20 8l-10 4q27 66 58 180q37 135 53 180l10 10l-4 21q-27 -10 -78 -64q-20 -14 -61 -34 q-18 4 -56 16q-10 14 -36 35l10 10q-14 12 -15 14zM51 76q0 -4 4 -21q31 0 46.5 14.5t23.5 16.5q104 92 102 92q6 0 47 76q47 84 54 90l-2 10q-4 0 -4 4q-1 17 26 25v25h-14q-70 -49 -74 -66q-25 -4 -112 -105.5t-92 -125t-5 -35.5zM186 -186l9 -2l6 12l-6 2z" />
<glyph unicode="r" horiz-adv-x="395" d="M-10 14q0 -6 14 33q-2 20 45 123.5t47 144.5q0 8 -4 21.5t-4 19.5q20 41 41 41q49 0 55 -24q10 -37 15 -41q23 31 95.5 95.5t94.5 64.5h29q4 0 4 -7.5t9 -9.5t9 -10q0 -37 -100 -262q-14 4 -43 6q0 4 -2 10v8q0 6 2 9q8 14 8 36q0 10 6 11l6 -4q2 2 7 49q4 31 22 39 l-4 20q-23 -14 -47 -31q-43 -31 -43 -45q2 -4 4 -6q-14 -6 -35 -37q-35 -27 -80 -104q-41 -68 -41 -104q0 -8 2 -15q-8 -6 -30 -35q-12 -16 -54 -30q0 10 -14 18t-14 16z" />
<glyph unicode="s" horiz-adv-x="321" d="M-53 20l10 13q8 0 57 -15l9 -10v2q0 2 10 2l45 35q4 20 37 84q31 57 30 129q16 14 17 64q0 10 6 26.5t6 28.5q14 33 14 39q0 10 -8 16q10 12 23 12q6 0 47 56q4 4 0 6h24q18 2 27 2q10 0 21.5 -21.5t11.5 -33.5q0 -6 -5 -16.5t-5 -16.5q-20 0 -21 -21q-6 0 -19.5 2.5 t-21.5 2.5q-23 -86 -47 -173q-27 -100 -61 -167q-10 -8 -95 -119l-10 2l-16 -15q2 0 -39 0q-6 0 -8 5.5t-10.5 5.5t-18.5 32q-6 23 -10 43z" />
<glyph unicode="t" horiz-adv-x="352" d="M10 330l10 10v16q2 10 2.5 16.5t47.5 14.5q41 8 53 8t27.5 35t25.5 41l-6 10l6 6q-2 4 -2 9q0 4 3 12t3 12l-4 10q20 53 72 156q-2 10 -6 14q10 14 34 50q-8 10 -10 9t-2 1q2 2 8 2q12 45 29 57q-8 8 -10 21q6 16 13 31.5t65 15.5q6 0 9 -7.5t7 -9.5v-32 q-20 -23 -86 -181q-14 0 -47 -98q-37 -111 -45 -123q4 -4 14 -12q-8 8 -10 0q10 0 34.5 7t37.5 7q4 0 12 -2t12 -2h-1q0 1 65 15l12 10q6 -2 14 -4q12 0 39 7t41 7l35 -4q6 -9 16 -19q-12 -10 -32 -18h-27q-4 0 -14.5 -4t-16.5 -4l-10 -10q-16 0 -149 -45q-2 0 -7.5 3 t-7.5 3q-8 0 -35.5 -17.5t-33.5 -17.5q-29 0 -52 -98q-17 -73 -17 -111q0 -8 1 -14q-8 -4 -28.5 -67.5t-30 -63.5t-9.5 -5l-12 -4l4 -6q-10 8 -33 17q6 14 0 34q2 16 15 56q10 33 10 55q12 14 28.5 72.5t16.5 83.5q0 16 -18 20t-25 -2l4 6q-8 6 -24 6z" />
<glyph unicode="u" horiz-adv-x="425" d="M-2 61q10 10 8 35t10 31q-6 6 -18 8q8 6 43 76t35 80l-6 10q33 35 32 78q4 6 15 16q-6 4 -17 13l2 6l-4 6q35 27 33 26q6 0 14.5 -2t14.5 -2q33 -20 55 -30v-23q0 -6 -6 -6l-6 2q-6 -20 -53 -78q-8 0 -15 -37q-25 -23 -41 -94q-4 -16 -10 -33q-6 0 -6 -2q0 -8 26 -8 q20 0 82 88q14 10 15 25q51 41 67 59q35 37 49 76q16 12 50 73.5t34 82.5q10 0 33 5t33 5q13 0 27 -33l-15 -14q2 -6 10 -17q-18 -27 -43 -55q-12 -39 -45 -109l5 -10q-23 -16 -11 -18q-2 -2 -20 -31l14 -16l-6 2q-8 -2 -14 -13l4 -2l-6 -12l-5 8q-4 -35 -4 -57l-10 4 q-29 -100 -33 -168q-2 -2 -2 -4q0 -4 6 -8q-6 -4 -26 -31q-16 -18 -37 -20l10 4q-12 14 -45 14l10 12q-10 4 -16 9q43 79 43 130v9q23 29 23 59q6 18 24 51v15l-8 8q-10 -6 -43 -48t-40 -42t-32.5 -35t-30 -35t-39 -37t-83.5 -37v9h-4t-5 8q0 2 -6 2t-11 11zM295 260l14 -12 l-4 12q4 6 14 4q-4 4 -8 4q-8 0 -16 -8z" />
<glyph unicode="v" horiz-adv-x="354" d="M51 399v37q18 4 58 31q12 0 33.5 -15.5t27.5 -25.5v-23q-14 2 -16 -22q2 20 2 -37q-14 -12 -15 -61q0 -12 -6 -58q-4 -35 0 -61q-2 2 -4 2l-10 -10v-19l8 -8q121 207 227 332q0 2 2 6l-4 8h6q18 0 27.5 48t48.5 48l38 -26v-37q-39 -27 -271 -369q-8 -20 -25 -51 q-6 -49 -8 -43q-12 -6 -18 -12l10 -4q-14 -8 -6 -23h-15l4 -14q-12 -10 -14 -27q-26 -24 -49 -24h-2q-6 0 -11.5 8t-11.5 8q-2 37 -2 80q0 102 6 160q2 6 7 32q4 20 4 35q0 20 -6 31q0 2 5 4t5 8q0 8 -4 37q-4 20 0 35q0 2 -21 20z" />
<glyph unicode="w" horiz-adv-x="450" d="M-12 57q0 16 10 45q14 39 16 45q2 14 2 95q2 2 2 4q0 4 -4 10q4 6 11 6q0 51 8 111q8 4 22 4q6 0 19.5 -14.5t15.5 -16.5v-108q23 16 72 96q47 74 52 74t15 2h19q43 0 43 -52q0 -37 -10.5 -119.5t-10.5 -125.5q8 -8 19 -9q6 0 6 2l-6 11q31 29 30 84q12 -2 13 -2 q4 0 4 22q0 4 21.5 34t23.5 38q14 37 63 123v20q14 2 21 8l-10 5q0 18 -6 28q2 8 34.5 41t38.5 33t18.5 -3t18.5 -3q2 -6 2 -15l-4 -8v-18v-6q-18 -12 -14 -35q-20 -6 -39 -51q-27 -57 -31 -62q-12 -18 -68.5 -138t-60.5 -136q-6 -4 -15.5 -21.5t-2.5 -23.5l-13 4 q-6 -37 -15 -74t-40 -61h-18q-6 0 -8.5 5t-8.5 5q-12 0 -26 8q12 4 12 8t-6 4t-17 13q6 8 13 24q-8 2 -9 15q0 16 21 26q-14 8 -14 31q0 8 5 23.5t5 23.5t-2 21.5t-2 21.5q0 27 14 39v113l-8 8q-4 -4 -16.5 -30t-18.5 -26q-16 0 -10 5v-2t8 -11q-33 -29 -41 -59l-4 -10 l4 -11q-39 -10 -25 -34q-25 -29 -30 -66q-10 -4 -24.5 -14.5t-43.5 -10.5q-20 0 -20 37z" />
<glyph unicode="x" horiz-adv-x="364" d="M-57 -100q16 39 61 90q55 63 68 82q4 6 0 8q23 31 73 90q-12 16 -30 51q-6 18 -14.5 38t-24.5 26q-2 6 -13.5 28.5t-11.5 30.5q0 10 17.5 23.5t29.5 13.5q37 0 60 -53q18 -43 35 -86q2 2 49 55q31 35 37 61q12 16 36 52l-2 14q0 2 43 27q2 6 15 6q8 0 31.5 -18.5 t27.5 -26.5q0 2 -2 2q-14 0 -14 -11q0 -6 10 -8l-8 6q-2 -2 -2 -4q0 -6 4 -10q-12 0 -23.5 -14.5t-5.5 -24.5q-31 -8 -37 -26q-27 0 -28 -29q-14 -2 -56.5 -51t-42.5 -62l15 -20q14 -21 14 -45l8 8q6 0 7 -12.5t7 -12.5q14 -6 15 -8q0 -4 -6 -6q14 -8 39 -35q-14 -2 -11 -35 h-2q-6 0 -20.5 -3t-20.5 -3q-18 0 -18 19q0 2 -4 2q-18 25 -33 32l10 9q-25 16 -43 53h-14q-12 -20 -96 -119q-61 -72 -76 -129q6 0 -31 0q-23 0 -22 25z" />
<glyph unicode="y" horiz-adv-x="442" d="M-545 -633q12 25 15 150q0 82 26 114l-6 11q10 6 64 67q45 53 63 53q25 0 47 -12q-31 -27 -90 -80q-14 -12 -26.5 -45t-24.5 -45q0 -27 -15 -78l9 -14l-4 2q-6 0 -7 -8q0 -8 5.5 -26.5t5.5 -28.5q0 -53 16 -91q20 -51 25 -71q10 -4 20 -13l-8 -4q58 -67 113 -67h2 q6 0 27.5 10t30.5 10t76.5 58.5t67.5 66.5l-4 8l11 -4q16 23 47 72q45 70 88 137q49 82 69 146l15 6q-4 8 -11 2q78 125 95 235q25 29 24 76q29 90 94 262l-12 15q-6 -10 -8 -31q-16 2 -26.5 -16.5t-18.5 -18.5q-14 -10 -14 -29q-14 -2 -36 -25.5t-24 -37.5l-12 2 q-6 0 -21.5 -22.5t-15.5 -30.5q-10 0 -38 -30t-48 -30q-4 0 -43 25l2 24q8 10 29 58v4q-6 12 -6 14q0 6 11 24.5t11 37.5q0 8 -2 16l10 -6q29 81 29 136v7q8 4 25.5 33t27.5 29q6 0 20.5 -3t20.5 -3q-4 -10 -4 -19q0 -20 14 -27v-16q-37 -37 -67.5 -122t-32.5 -87q0 -2 8 -2 q14 0 43 35q20 25 39 47q109 109 103 121q39 27 77.5 86t42.5 102q20 33 21 25q0 4 -6 4q33 25 63 90q35 76 55 96q39 45 109 45q6 0 27 -20q6 -21 10 -37q-45 -47 -119 -160q-51 -25 -139 -163q-27 -39 -64 -179q-12 -16 -38.5 -86.5t-26.5 -91.5q0 -8 -2 -8h-8v-2 q2 -39 -29 -111q-39 -94 -45 -112q-16 -20 -57 -123q-14 0 -25 -58q-14 -16 -34.5 -56t-43.5 -58l10 -8q-49 -82 -123 -197q-31 -47 -112 -115q-89 -73 -134 -73h-1q-51 0 -47 0q4 2 4 6q0 8 -11 8q-4 0 -10 -3t-10 -3q-2 0 -41 33q-57 45 -76 94q-35 96 -41 104z" />
<glyph unicode="z" horiz-adv-x="421" d="M-72 -43q6 16 15 47q39 14 150.5 133t123.5 162q10 2 33 35q14 20 31 43q-8 6 -13 6q-25 0 -35 -10h-14l-31 -19q-4 4 -12 4q-18 0 -29 -8q0 -2 -5 -2t-6 -5t-7 -5t-17.5 6t-19.5 6q-12 43 -12 47q0 16 14 17q0 4 10 4q4 0 11.5 8t13.5 8t17.5 -3t17.5 -3q8 0 26.5 7 t24.5 7h35l8 -10v2q0 4 10 4q4 0 20.5 7.5t24.5 7.5q2 0 7.5 -2t7.5 -2q6 0 7 5t7 5t8 -3t8 -3q10 0 11 14q14 10 53 10q25 0 43 -51q-20 -12 -42 -24.5t-26 -32.5q-4 4 -20 4q-8 0 -133 -142q-135 -158 -148 -170v-16q12 4 8 8l9 -8l6 10q-2 -2 -2 -6q0 -2 6 -4 q10 0 26.5 3t24.5 3q6 0 2 -5t2 -5q8 0 24.5 7t22.5 7q4 0 9.5 -2t9.5 -2q14 0 46 7.5t48 7.5q4 0 10 -2.5t10 -2.5q2 0 11.5 2.5t15.5 2.5q2 0 3 -5.5t5 -5.5q-6 0 15 11l10 -11q4 4 32.5 14.5t36.5 10.5q2 0 45 -10v-19q-14 -8 -82.5 -29.5t-82.5 -21.5q-6 0 -21.5 3 t-21.5 3q-20 0 -35 -14h-21q-4 0 -12 2t-12 2q-14 0 -23.5 -5t-11.5 -5q-6 0 -21 6l-8 -10h-6q-10 0 -22.5 -5.5t-18.5 -5.5q-4 0 -14 5.5t-15 5.5q-4 0 -5 -3.5t-7 -3.5t-48 -19t-49 -19t-7 -5l2 -6q-10 2 -39 25l-6 -4q2 10 -17 10z" />
<glyph unicode="{" horiz-adv-x="2048" />
<glyph unicode="&#xad;" d="M37 260q6 6 55 16.5t66 10.5q10 0 31.5 -10.5t33.5 -10.5q2 0 7.5 3t7.5 3q8 0 21 -5t22 -5q14 0 45.5 2t48.5 2q20 1 28 -28q-92 -31 -186 -31q-4 0 -24 10l-9 -10h-20q-16 0 -45 -5t-45 -5q-6 0 -15.5 10t-11.5 12v4q0 6 -10 37z" />
<glyph unicode="&#x2000;" horiz-adv-x="682" />
<glyph unicode="&#x2001;" horiz-adv-x="1365" />
<glyph unicode="&#x2002;" horiz-adv-x="682" />
<glyph unicode="&#x2003;" horiz-adv-x="1365" />
<glyph unicode="&#x2004;" horiz-adv-x="455" />
<glyph unicode="&#x2005;" horiz-adv-x="341" />
<glyph unicode="&#x2006;" horiz-adv-x="227" />
<glyph unicode="&#x2007;" horiz-adv-x="227" />
<glyph unicode="&#x2008;" horiz-adv-x="170" />
<glyph unicode="&#x2009;" horiz-adv-x="273" />
<glyph unicode="&#x200a;" horiz-adv-x="75" />
<glyph unicode="&#x2010;" d="M37 260q6 6 55 16.5t66 10.5q10 0 31.5 -10.5t33.5 -10.5q2 0 7.5 3t7.5 3q8 0 21 -5t22 -5q14 0 45.5 2t48.5 2q20 1 28 -28q-92 -31 -186 -31q-4 0 -24 10l-9 -10h-20q-16 0 -45 -5t-45 -5q-6 0 -15.5 10t-11.5 12v4q0 6 -10 37z" />
<glyph unicode="&#x2011;" d="M37 260q6 6 55 16.5t66 10.5q10 0 31.5 -10.5t33.5 -10.5q2 0 7.5 3t7.5 3q8 0 21 -5t22 -5q14 0 45.5 2t48.5 2q20 1 28 -28q-92 -31 -186 -31q-4 0 -24 10l-9 -10h-20q-16 0 -45 -5t-45 -5q-6 0 -15.5 10t-11.5 12v4q0 6 -10 37z" />
<glyph unicode="&#x2012;" d="M37 260q6 6 55 16.5t66 10.5q10 0 31.5 -10.5t33.5 -10.5q2 0 7.5 3t7.5 3q8 0 21 -5t22 -5q14 0 45.5 2t48.5 2q20 1 28 -28q-92 -31 -186 -31q-4 0 -24 10l-9 -10h-20q-16 0 -45 -5t-45 -5q-6 0 -15.5 10t-11.5 12v4q0 6 -10 37z" />
<glyph unicode="&#x2013;" horiz-adv-x="1096" d="M37 260q17 6 154 16.5t185 10.5q28 0 88 -10.5t93 -10.5q6 0 21.5 3t20.5 3q23 0 59 -5t62 -5q39 0 127 2t136 2q56 1 78 -28q-257 -31 -520 -31q-12 0 -68 10l-25 -10h-56q-44 0 -125.5 -5t-125.5 -5q-17 0 -43.5 10t-32.5 12v4q0 6 -28 37z" />
<glyph unicode="&#x2014;" horiz-adv-x="2120" d="M37 260q34 6 308 16.5t369 10.5q56 0 176.5 -10.5t187.5 -10.5q11 0 42 3t42 3q44 0 117 -5t123 -5q79 0 255 2t271 2q112 1 157 -28q-515 -31 -1041 -31q-22 0 -134 10l-50 -10h-112q-90 0 -252 -5t-252 -5q-34 0 -87 10t-64 12v4q0 6 -56 37z" />
<glyph unicode="&#x202f;" horiz-adv-x="273" />
<glyph unicode="&#x205f;" horiz-adv-x="341" />
<glyph unicode="&#x25fc;" horiz-adv-x="460" d="M0 0v461h461v-461h-461z" />
</font>
</defs>
</svg>
